<svg width="270" height="270" viewBox="0 0 270 270" fill="none" xmlns="http://www.w3.org/2000/svg">
<path d="M0 0H270V270H8C3.58173 270 0 266.418 0 262V0Z" fill="white"/>
<g clip-path="url(#clip0_3199_5738)">
<path d="M173.564 89.3809C171.966 89.3809 170.165 89.4138 168.156 89.451C163.385 89.5397 157.45 89.6499 150.249 89.3809H124.137C124.026 89.3809 123.925 89.3895 123.789 89.4038C117.229 89.5784 115.853 93.5267 115.853 96.8097V101.066C115.853 104.512 117.327 108.619 124.349 108.619H150.608C169.132 108.619 174.135 108.595 174.135 124.422H105.81C93.3812 124.422 85.278 126.784 80.3897 131.467C80.351 131.504 80.3086 131.539 80.2704 131.576C75.9693 135.773 74.2058 141.806 74.2046 149.652L74.1765 153.339C74.1765 153.339 74.1765 153.339 74.1765 153.34L74.1745 153.608C74.1745 165.762 80.7509 180.238 112.084 180.238H155.996C181.966 180.238 195.135 170.858 195.135 152.36V107.154C195.135 98.0175 184.651 89.3809 173.564 89.3809ZM171.405 158.026C169.82 159.424 165.885 161.091 156.142 161.091H111.997C108.533 161.091 105.751 161.062 103.542 160.854C103.153 160.818 102.782 160.775 102.428 160.726C101.546 160.605 100.772 160.443 100.096 160.229C99.7534 160.12 99.4362 159.998 99.1428 159.861C99.0168 159.802 98.8951 159.74 98.7778 159.675C98.3557 159.442 97.9865 159.173 97.6732 158.858C96.8618 158.041 96.4008 156.927 96.2156 155.408C96.1503 154.874 96.1181 154.291 96.1181 153.651V150.334C96.1181 149.221 96.1215 148.129 96.6378 147.165C97.6767 145.226 100.808 143.807 110.23 143.785H110.232C110.304 143.785 110.371 143.784 110.444 143.784H174.203L174.216 147.753C174.216 152.974 173.276 156.424 171.405 158.026Z" fill="#2F2CF9"/>
</g>
<defs>
<clipPath id="clip0_3199_5738">
<rect width="120.96" height="90.8567" fill="white" transform="translate(74.1745 89.3809)"/>
</clipPath>
</defs>
</svg>
