<svg xmlns="http://www.w3.org/2000/svg" viewBox="0 0 240 60" width="240" height="60" role="img" aria-label="Clemios — eMobility Engineering Partner">
  <g transform="translate(0,0) scale(0.096) translate(-6,0)">

<path fill="#02B8E4" d="M289.4,575.9C291.7,575.3 294,574.7 296.9,574.4C302.7,575.1 307.9,575.5 313.1,575.9C313.1,575.9 313,575.9 313.2,576.2C313.9,576.6 314.5,576.8 315.1,577C315.1,577 315.6,577 315.8,577.4C316.3,577.9 316.5,578.1 316.7,578.3C316.8,577.8 316.9,577.4 317,576.9C317,576.9 317,577 317.4,577C322.6,576.9 324.6,580.2 326.1,584.1C326.1,584.1 326.2,584.1 326,584.1C325.7,584.2 325.5,584.4 325.5,584.4C325.6,584.6 325.8,584.8 326.2,585.2C363.8,575.5 398.9,560.2 434.6,543C417.8,540.3 402,537.8 387.6,535.4C384.4,540.2 381.8,544.1 379,548.2C378.5,548.6 378.3,548.9 378,549.4C377.7,549.9 377.4,550 376.9,550.1C376.3,550.4 376.1,550.6 375.8,551.1C375.1,551.6 374.6,551.8 373.7,552C372.8,552.5 372.1,553 371.4,553.5C371.3,553.6 371.2,553.4 370.7,553.3C366,553.4 361.6,553.7 357.3,554C355.5,554.1 353.7,554.1 351.7,554.2C351.6,554.2 351.2,554.1 350.8,554.1C347.3,551.4 344,548.7 340.8,546C340.8,546 341,546 340.9,545.8C340.5,545.4 340.2,545.2 339.9,545C339.9,545 340,545 340,544.7C338.2,538.5 334.7,533 337,526.4C337.9,523.7 338.3,520.7 338.9,517.9C338.9,517.9 339,518 339.3,517.9C340.1,516.9 340.5,515.9 341,514.9C341.4,514.3 341.9,513.7 343,513C345.4,511.6 347.1,510.2 348.9,508.8C348.9,508.8 349,508.9 349.3,508.9C351.8,508.3 353.9,507.6 356.5,507C363,508 369,509 375.1,510C375.4,509.9 375.7,510.1 376.1,510.8C376.6,511.5 376.9,511.7 377.3,511.9C377.3,511.9 377.6,511.8 377.9,512.1C379.7,513.7 381.3,514.7 382.6,516.1C384,517.6 385,519.5 386.4,521.5C402.4,524.4 418.1,527 433.7,529.7C436.9,530.3 439.1,529.8 441.6,527.2C445.4,523.4 449.7,520.2 455.8,520.8C460.5,521.3 465.2,520.9 470.2,520.9C471,520.6 471.5,520.3 472.3,520.2C474.8,523.2 477,526.1 479.2,529C487.3,539.4 485.2,553.5 474.4,562C464.3,569.8 448.3,568.3 440.6,558.8C439.9,557.9 439.2,556.9 438.4,555.8C429.4,559.9 420.6,564 411.8,568.1C385.6,580.3 358.7,590.5 331.2,599.2C329.4,599.7 327.3,601.5 326.6,603.3C321.7,616.2 313.1,621.9 298.9,621C288.9,620.4 281,612.8 278.3,600.2C278.4,599.1 278.2,598.5 278,598C278,598 278,598 278,597.6C275,594 273.2,590.2 273.8,585.7C274,584.6 275.4,583.7 276.2,582.7C276.1,582.8 276.2,582.8 276.1,583.1C277.1,583.5 278,583.6 278.9,583.5C278.9,583.3 279.1,583 279.4,582.7C281,577.5 285.9,577.8 289.4,575.9z" />
<path fill="#016EB4" d="M94.1,344.9C95.8,350 97.4,355 99,360.9C100.8,366.4 102.5,371.2 104.2,375.9C104.2,375.9 104.1,375.9 104.1,376.3C104.4,377.7 104.8,378.8 105.1,380C107.1,385.1 109,390.1 110.7,395.7C110.5,396.1 110,396.2 109.6,396.1C106.2,396.7 103.1,397.4 100,397.6C95.3,382.6 90.6,367.9 86.2,353.1C76.3,319.8 66.7,286.4 56.8,253.1C56.3,251.5 54.5,250.3 52.7,248.3C51.3,254.8 50.2,259.7 49.2,264.7C47.8,272.9 46.5,281 45.1,289.1C45.1,289 45.2,289 44.8,289.2C44.4,291 44.2,292.6 44.1,294.1C44.1,294 44.1,294 43.8,294.2C43.4,295.7 43.2,296.9 43.1,298.1C43.1,298 43.2,298 42.8,298.3C42.4,300 42.2,301.6 42,303.4C42,303.6 42,304 41.7,304.2C41.3,305.7 41.2,306.9 41,308.4C41,308.6 41,309 40.7,309.2C40.3,310.7 40.2,311.9 40,313.4C40,313.6 40,314 39.7,314.2C37.6,324 35.8,333.6 34.1,343.5C33.7,344.9 33.4,345.9 33,347.1C32.9,347.4 32.8,347.8 32.5,347.8C31.8,347.8 31.4,347.8 30.7,347.5C27.5,347.2 24.6,347.1 21.7,347.1C22.1,344.6 22.6,342.2 23.5,339.3C24.6,337 25.5,335.3 25.9,333.4C31.9,305.1 37.8,276.9 43.6,248.6C44.3,245.2 44,241.5 44.2,238C44.1,237.8 44.1,237.7 44.6,237.2C51.2,237.4 57.2,237.7 63.7,238.1C66.4,249.1 69.1,260.8 72.3,272.4C76.8,288.7 81.4,304.9 86.2,321.1C88.6,329.1 91.5,337 94.1,344.9z" />
<path fill="#02B8E4" d="M206.1,488.2C210.6,482.5 215.9,477.9 223.1,476.1C234.8,473.2 246.2,477.2 253.1,486.6C259.6,495.4 259.8,507.8 253.6,517.9C252.5,519.8 251.3,521.5 249.6,523.7C245.4,526.1 241.6,528.1 237.4,530C234.8,530 232.6,530 230.5,530C218.5,529.8 206.4,520.5 203.4,508.8C203.4,508.1 203.1,507.5 202.9,507C203,507 203,507.1 203,506.7C203,505.9 203.1,505.5 203.4,504.7C204.4,499.9 205.2,495.4 205.9,490.6C206,489.6 206,488.9 206.1,488.2z" />
<path fill="#0270B8" d="M280.6,15.2C282.3,19.1 283.5,23.2 284.8,27.6C283.8,28.6 282.8,29.3 281.3,30.1C280.5,30.6 280.3,30.9 280.1,31.2C280.1,31.5 279.9,31.8 279,32C278.3,32.6 278,33.1 277.8,33.5C277.8,33.5 277.7,33.7 277.3,33.6C276.6,34 276.3,34.6 276.1,35.1C276.1,35.1 276,35 275.7,35.1C275.2,35.6 275,36 274.7,36.5C274.7,36.5 274.6,36.6 274.2,36.5C273.5,37.1 273.1,37.8 272.7,38.5C272.7,38.5 272.6,38.6 272.2,38.5C271.8,38.8 271.8,39.1 271.7,39.4C271.7,39.4 271.6,39.6 271.3,39.5C270.8,39.8 270.8,40.1 270.8,40.4C270.8,40.4 270.6,40.6 270.3,40.5C269.8,40.8 269.8,41.1 269.7,41.4C269.7,41.4 269.6,41.6 269.2,41.5C268.5,42.1 268.2,42.8 267.8,43.5C267.8,43.5 267.7,43.6 267.3,43.6C266.6,44.1 266.3,44.6 266,45.2C265.6,45.7 265.2,46.3 264.2,47C263.5,47.6 263.3,47.9 263.1,48.2C263.1,48.2 263.1,48.1 262.9,48.2C262.5,48.6 262.3,48.9 262.1,49.2C262.1,49.2 262.1,49.1 261.9,49.2C261.5,49.6 261.3,49.9 261.1,50.2C261.1,50.2 261.1,50.1 261,50.1C260.7,50.2 260.5,50.3 260.5,50.3C260.6,50.5 260.6,50.7 260.7,51C255.9,56.9 251.2,62.7 245.9,68.8C244.6,68.6 243.9,68.2 243,67.5C240.8,65.8 238.9,64.3 237,62.6C243.1,53.6 249,44.8 254.9,35.8C254.4,35.2 253.8,34.7 253.4,34.8C246.3,36.5 239.1,38.2 231.6,40C227.2,41.4 223.2,42.7 218.7,44C214.6,45.4 210.8,46.8 207.1,48.1C207.1,48.1 207.2,48.1 206.8,48.1C202.7,49.6 199.1,51.1 195.5,52.6C195.4,52.6 195.2,52.6 194.9,52.4C193,52.8 191.5,53.5 190,54.1C190,54.1 190.1,54.1 189.7,54.1C188,54.8 186.6,55.6 185.2,56.4C185.1,56.3 185.3,56.4 185,56.3C184.1,56.5 183.6,56.9 182.9,57.6C173.1,62.2 163.6,66.7 153.8,70.9C152,67.1 150.5,63.6 149,60.1C157.1,56.1 165.2,52.2 173.9,48.4C175.1,48.7 175.9,48.9 176.4,48.7C185.3,45.3 194.2,41.9 203,38.4C207.4,36.7 211.6,34.7 215.9,32.8C215.9,32.8 215.9,32.9 216.3,32.9C222.1,31.5 227.5,30.1 232.9,28.5C235,27.9 236.9,26.7 238.9,25.8C238.9,25.8 238.9,25.9 239.3,25.9C244,25 248.4,24.3 252.7,23.1C254.9,22.6 256.9,21.2 258.9,20.3C266.1,18.6 273.2,17 280.6,15.2z" />
<path fill="#40C6E0" d="M574.1,366C580.9,367.3 587.4,369.5 591.6,375.9C592,376.9 592.6,377.4 593.1,377.9C593.1,377.9 593,378 593.1,378.3C593.4,379 593.8,379.5 594.2,380C594.2,380 594.1,380 594.1,380.2C594.4,381 594.7,381.5 595,382C595,382 595.1,382.4 595.1,383C595,388.1 595.3,392.5 594.9,396.8C594.5,400 593.1,403 592.1,406.1C592.1,406.1 592.1,406.1 591.9,406.2C591.5,406.5 591.3,406.9 591.1,407.2C591.1,407.2 591.2,407.1 591.1,407.1C590.8,407.3 590.6,407.3 590.5,407.4C590.7,407.6 590.8,407.8 591,408C587.6,410.6 584.1,413.3 580.2,415.7C579.5,415.7 579.3,415.8 579,416C579,416 578.6,416.1 577.9,416C570.8,415.4 564.3,414.8 557.5,414C553.8,410.8 550.4,407.9 546.9,404.9C544.1,396.1 542,387.2 547.9,378.2C549,376.9 549.5,375.9 550,374.8C551.1,373.6 552.1,372.4 553.9,371C555,370.6 555.4,370.2 555.9,369.8C555.9,369.8 556,369.9 556.2,369.8C556.6,369.5 556.8,369.2 557,368.9C557,368.9 557,368.9 557.2,368.9C558,368.6 558.5,368.2 559,367.8C559,367.8 559,367.9 559.3,367.9C564.5,367.3 569.3,366.6 574.1,366z" />
<path fill="#3DC0DE" d="M148.6,60C150.5,63.6 152,67.1 153.8,71.3C155,81.1 153.4,89.7 145.3,95C138.2,99.7 130,101.8 121,99C119.1,98.2 117.6,97.6 116,96.7C115.7,96.2 115.4,96 114.9,95.7C114.1,94.7 113.5,94 112.8,92.9C112.2,92.1 111.5,91.6 110.8,91.1C110.5,91 110.2,90.9 110,90C109.6,89 109.2,88.5 108.8,88C108.8,88 108.9,88 108.9,87.7C108.3,82.2 107.6,77.1 106.9,71.9C109.9,60.4 114.5,56.1 124.7,53.9C133.7,52 141.5,53.6 148.6,60z" />
<path fill="#02B8E4" d="M445.1,443C451.2,428.6 469.3,424 481.8,433.7C483,434.6 484.1,435.6 485.7,436.8C486.4,437.4 486.7,437.7 487,438.4C488,441.2 489,443.6 490,446.3C490,447.1 490,447.6 490,448.5C490.9,459.1 487.6,467.4 478.4,472.3C469.6,477 460.9,476.1 453.1,469.9C450.4,465.5 447.5,461.3 444.6,457.2C444.6,457.2 444.8,457.1 444.8,456.7C444.8,452.5 444.8,448.6 444.7,444.8C444.7,444.8 444.5,444.8 444.8,444.7C445.1,444.1 445.1,443.6 445.1,443z" />
<path fill="#3DC0DE" d="M110,527C101.8,519.1 99.8,509.4 105.1,499.3C108.1,495.8 110.6,492.9 113.4,490C113.6,490.1 114,490.3 114.1,490.6C120.5,490.6 126.8,490.2 133.1,489.9C133,490 133,489.9 133.2,490.2C134.3,490.6 135.2,490.8 136,491C136,491 136,490.9 136.1,491.2C136.5,491.6 136.8,491.8 137.1,491.9C137,491.9 137.1,491.8 137.1,492C137.4,492.1 137.7,492.1 138.3,492.2C140.8,495.2 142.9,498.2 145.2,501.4C145.9,503.5 146.5,505.2 147.1,507.4C147.1,510.1 147,512.3 146.9,514.8C146.5,516.1 146.3,517 145.8,518.2C143.1,521.3 140.6,524.2 137.8,527.1C136.7,527.8 135.9,528.5 135.1,529.2C135.1,529.2 135.1,529.1 134.8,529.2C134.4,529.5 134.2,529.8 134,530.1C134,530.1 134,530.1 133.6,530C126.1,531.7 119.3,531.4 112.8,527.5C112.1,527 110.9,527.1 110,527z" />
<path fill="#33B5DE" d="M100,398C103.1,397.4 106.2,396.7 109.8,396.3C110.7,396.6 111,396.7 111.3,396.8C111.3,396.8 111.2,397 111.3,397.2C115,398.6 118.6,399.8 122.1,401C122.4,400.9 122.7,401.1 123.1,401.8C123.5,402.5 123.8,402.7 124.2,403C124.2,403 124,403 124.2,403.2C124.6,403.6 125,403.7 125.3,403.9C125.6,403.9 125.8,404.1 126,404.9C126.5,405.9 126.8,406.4 127.2,406.9C127.2,406.9 127.1,407 127.2,407.2C127.6,407.7 127.9,407.9 128.3,408.2C133,415 130.9,422.1 128.7,429.7C125.3,432.5 122.2,434.8 118.9,437.1C118.4,437.6 118.3,437.9 118.1,438.1C118,438.1 118.1,438.1 117.7,438.1C113.2,438.3 109,438.9 105,438.9C102.2,438.8 99.6,437.7 96.9,437.1C97,437.1 96.9,437.2 96.9,436.8C96.2,436.1 95.4,435.7 94.7,435.4C94.7,435.3 94.7,435.3 94.7,435C94.4,434.6 94,434.4 93.8,434.1C93.9,434 93.7,434.3 93.7,434C93.4,433.6 93,433.4 92.7,433.2C92.7,433.1 92.7,433.3 92.7,433C92.4,432.5 92,432.4 91.7,432.2C91.8,432.1 91.8,432.3 91.8,432C91.4,431.5 91.1,431.3 90.8,431.1C90.9,431.1 90.8,431.2 90.9,430.8C89.7,427.6 88.4,424.8 87,421.6C85.9,411.2 89.5,403.6 98.8,398.8C99.3,398.5 99.6,398.2 100,398z" />
<path fill="#0486CB" d="M546.6,405.1C550.4,407.9 553.8,410.8 557.6,414.1C557.9,414.5 557.9,414.8 557.9,414.8C546.5,431.5 535.1,448.1 523.4,464.6C524.3,458.4 523.4,457.3 517.3,457C516.4,456.9 515.6,456.9 514.9,456.5C522.1,445.8 529.2,435.5 536.5,425.1C536.3,424.8 535.9,424.6 535.2,424.6C526.7,428.9 518.4,433.1 510.2,436.8C511,435.6 511.8,434.7 512.2,434.2C510.5,431.7 508.9,429.5 507.6,427.6C500.9,430.5 494.5,433.3 488,436C487.9,435.9 487.8,435.8 487.8,435.8C506.9,425.9 526,415.9 545,406C545.5,405.7 545.9,405.5 546.6,405.1z" />
<path fill="#3DC0DE" d="M236.9,62.9C238.9,64.3 240.8,65.8 243,67.9C247.2,74.6 245.7,81.5 246.1,88.1C246.1,88.1 246.1,88 245.8,88.2C245.4,88.9 245.2,89.5 245.1,90.1C245.1,90.1 245,90 244.7,90.1C243.9,91.1 243.5,92.1 243,93.1C238.6,100.7 224,101 215.5,95.8C213.1,92.2 211.1,89.1 209.1,85.5C206.2,68.3 221.5,57.9 236.9,62.9z" />
<path fill="#036EB6" d="M113.2,490C110.6,492.9 108.1,495.8 105.2,498.9C102.3,495.3 99.8,491.5 97.3,487.1C96.8,486 96.1,485.4 95.5,484.7C95.5,484.7 95.4,484.6 95.5,484.1C94.7,482.5 93.7,481.3 92.8,480.1C92.8,480.1 92.9,480.1 92.9,479.8C92.2,478.7 91.5,477.9 90.8,477.1C90.8,477.1 90.9,477 90.9,476.7C90.1,475.5 89.3,474.6 88.5,473.7C88.5,473.7 88.4,473.5 88.5,473.1C87.7,471.5 86.7,470.3 85.7,469.1C85.7,469.1 85.9,469.1 85.9,468.8C85.1,467.6 84.3,466.7 83.4,465.8C83.4,465.8 83.3,465.6 83.4,465.2C83,464.2 82.4,463.6 81.9,463.1C81.9,463.1 82,463 82,462.7C80.3,459.9 78.6,457.5 76.9,455.1C76.9,455.1 77,455 77,454.7C75.9,452.9 74.9,451.5 73.8,450.1C73.8,450.1 73.9,450.1 73.9,449.7C73.3,448.6 72.6,447.8 71.9,447.1C71.9,447.1 72,447 72,446.7C70.8,444.8 69.6,443.3 68.5,441.8C68.5,441.8 68.3,441.6 68.5,441.1C67.7,439.5 66.8,438.3 65.8,437.1C65.8,437.1 65.9,437 65.9,436.7C64.9,435 63.8,433.6 62.8,432.1C62.8,432.1 62.9,432.1 62.9,431.8C61.9,430 60.9,428.6 59.8,427.1C59.8,427.1 59.9,427 59.9,426.7C57.9,423.3 55.9,420.2 53.8,417.1C53.8,417.1 53.9,417 53.9,416.7C52.9,415 51.9,413.6 50.8,412.1C50.8,412.1 50.9,412 50.9,411.7C49.9,410 48.9,408.5 47.9,407.1C47.9,407.1 48,407 48,406.7C47.8,405 47.7,403.6 47.5,400.7C50.2,403.1 51.9,404.5 53.8,406.1C54.6,405 55.3,404.1 56.1,403.1C57.5,403.8 58.8,404.3 60.1,404.9C60.1,404.9 60.1,404.9 60.1,405.2C60.5,406 60.9,406.4 61.3,406.8C61.2,406.9 61.2,406.7 61.2,407.1C61.8,408.3 62.5,409.1 63.1,410C63,410 63.1,409.9 63.1,410.2C63.5,411 63.9,411.4 64.2,411.9C64.2,411.9 64.2,411.8 64.1,412.2C65.1,415.5 65,419.1 69.1,420C69,420 69.1,419.9 69.1,420.3C69.9,421.6 70.7,422.6 71.5,423.6C71.4,423.6 71.5,423.6 71.4,423.9C71.6,424.4 71.9,424.7 72.1,424.9C72.1,425 72.1,424.9 72.1,425.2C72.5,426 72.9,426.4 73.3,426.8C73.2,426.9 73.2,426.8 73.2,427.1C73.8,428.3 74.5,429.1 75.2,429.9C75.1,429.9 75.1,429.8 75.1,430.2C76.1,432 77.2,433.4 78.2,434.9C78.1,434.9 78.2,434.8 78.1,435.1C78.5,436 78.8,436.5 79.1,437C79.1,437 79.1,436.9 79.2,437.1C79.5,437.6 79.8,437.8 80.1,438C80,438 80.1,437.9 80.1,438.2C80.5,439 80.9,439.4 81.2,439.9C81.2,439.9 81.2,439.8 81.2,440.2C82.4,442.3 83.8,444.2 85,446C85,446 85,445.9 85.1,446.3C85.5,447 85.8,447.5 86.2,447.9C86.1,447.9 86.1,447.8 86.1,448.2C86.7,449.3 87.4,450.1 88.4,451C96.9,464.1 105,477 113.2,490z" />
<path fill="#28A9DC" d="M31,347.8C31.4,347.8 31.8,347.8 32.8,347.9C33.6,348 33.8,348 34,348C34,348 34,348 34.1,348.4C36.5,349.8 38.8,350.8 41.1,351.9C41,351.9 41,351.9 41.1,352.1C41.6,352.6 41.9,352.8 42.1,352.9C42,352.9 42.1,352.8 42.2,353.1C42.6,353.5 42.9,353.7 43.1,353.9C43.1,353.9 43.1,353.8 43.1,354.2C43.8,355 44.4,355.5 45,356C45,356 45,355.9 45.1,356.2C45.5,357 45.8,357.5 46.1,358C46.1,357.9 46.1,357.8 46.1,358.2C46.4,359 46.8,359.5 47.1,360C47.1,360 47.1,359.9 47.1,360.3C47,365.3 47.1,369.7 47.1,374.1C47,374 47.1,374 46.8,374.2C46.4,375.3 46.2,376.2 46.1,377.1C46,377 46.1,377.1 45.8,377.1C45,377.8 44.6,378.5 44,379.5C40.9,381.9 37.9,384 34.9,386C34.9,386 34.4,386 33.9,385.7C28.2,384.6 23.1,383.8 17.9,383C17.3,382.6 16.7,382.2 15.9,381.3C15.4,380.5 15.1,380.3 14.8,380.1C14.8,380.1 14.9,380.1 14.8,379.9C14.5,379.5 14.2,379.3 13.9,379.1C13.9,379.1 14,379 14,378.7C13.1,373.7 11.9,369.2 11.4,364.5C11.2,362 12.3,359.4 12.9,356.8C12.9,356.8 12.9,356.9 13.1,356.8C13.5,356.4 13.6,356.1 13.8,355.7C13.8,355.7 13.6,355.8 13.8,355.8C14.1,355.7 14.3,355.7 14.4,355.6C14.3,355.4 14.1,355.2 14,355C15.1,353.7 16.2,352.5 17.8,351.3C18.4,351.1 18.6,350.9 18.8,350.7C18.8,350.7 18.9,350.8 19.3,350.8C23.4,349.9 27.2,348.8 31,347.8z" />
<path fill="#3DC0DE" d="M545.4,123.9C547.6,129.4 548.7,134.9 544.9,140.8C544.3,142 544.2,142.6 544,143.2C544.1,143.5 544,143.7 543.2,144.1C542.5,144.5 542.3,144.8 542,145.1C542,145.1 542.1,145 541.8,145.1C541,145.5 540.6,145.8 540.1,146.2C540.1,146.2 540.1,146.1 539.8,146.1C532.9,149.5 526.4,147.5 519.9,146.1C519.9,146.1 520,146.1 519.8,145.8C519.1,145.4 518.5,145.2 517.9,145.1C517.9,145.1 518,145 517.9,144.8C517.5,144.4 517.2,144.2 516.9,144.1C516.9,144.1 517,144 516.9,143.8C516.5,143.4 516.2,143.2 515.8,143.1C515.8,143.1 515.9,143.1 515.9,142.8C516,142 516,141.5 516.2,140.8C515.7,140.1 514.8,139.5 513.7,139C513.2,139 513,139.1 512.8,139.1C512.4,139 512.2,138.8 512.3,138C516,128.2 520.2,119.1 522.6,109.5C523.8,104.6 525.8,103.3 530.1,103.3C530.7,103.5 531,103.6 531.4,103.7C531.4,103.7 531.3,103.8 531.3,104.1C531.6,104.5 531.9,104.7 532.2,104.8C532.2,104.8 532.2,104.7 532.2,105.1C533.2,106.3 534.3,107.1 535.3,107.9C535.6,107.9 535.8,108.1 536,108.9C536.5,109.9 536.9,110.4 537.3,110.8C537.3,110.8 537.2,110.9 537.2,111.1C537.6,111.5 537.9,111.7 538.2,111.9C538.2,111.9 538.1,111.8 538.1,112.1C538.8,113 539.4,113.5 540.1,114C540.1,114 540,114 540,114.3C540.7,115.4 541.4,116.2 542.1,117C542.1,117 542,117 542,117.4C543.1,119.8 544.2,121.9 545.4,123.9z" />
<path fill="#32BEE0" d="M530,103C525.8,103.3 523.8,104.6 522.6,109.5C520.2,119.1 516,128.2 512.3,137.8C507.7,131.2 503.5,124.4 499.4,117C499.8,114.1 500.1,111.8 500,109.5C499.4,102.5 502.9,96.7 506.3,91.2C507.7,88.9 512,88.3 515,87C520.3,92.1 525.5,97.3 530.6,102.7C530.3,103 530.1,103 530,103z" />
<path fill="#04A3DC" d="M386.2,521.2C385,519.5 384,517.6 382.6,516.1C381.3,514.7 379.7,513.7 378,512.1C390.7,502 403.5,492.1 416.8,482.3C417.8,481.8 418.4,481.3 418.9,480.7C418.9,480.4 419.1,480.2 420.1,480C423.4,479.7 426,479.2 428.6,479C432.2,478.8 434.5,479.8 433.1,484.1C433,484 433.1,484 432.8,484.2C432.4,484.7 432.3,485.1 431.9,485.8C416.5,497.8 401.3,509.5 386.2,521.2z" />
<path fill="#047EC4" d="M335.4,24.1C335,23.8 335,23.6 335.2,22.9C335.9,19.9 336.4,17.5 336.8,15C336.9,14 337,13.1 337.1,11.7C338.9,11.6 340.6,11.8 342.9,12.3C344.4,12.7 345.2,12.8 346.1,12.9C346.1,12.9 346,13 346.3,13.2C358.3,15.3 370.2,17.2 382.2,19.3C385,20.4 387.5,21.2 389.8,22.3C384.6,29.9 385.7,32.9 393.8,35.9C398.3,37.6 402.5,40.1 406.8,42.2C384,33 360.1,27.6 335.4,24.1z" />
<path fill="#0467B1" d="M186.1,114.2C170.1,124.6 154.1,134.9 137.7,145.3C137.3,145.3 137,145 137.1,144.7C138.3,139.3 134.9,137.3 131.6,135.2C148.4,124.4 164.9,113.8 181.6,103.7C181.9,106 181.7,107.9 182.4,109.5C183.3,111.2 184.9,112.6 186.1,114.2z" />
<path fill="#0486CB" d="M406.9,42.2C402.5,40.1 398.3,37.6 393.8,35.9C385.7,32.9 384.6,29.9 390.2,22.3C391.8,22.1 392.8,22.2 393.7,22.4C400.5,24.2 407.3,26.1 414.1,27.9C422.3,31.1 430.6,34.2 438.6,37.6C436.5,37.4 434.6,36.9 433.9,36.7C430.7,41.1 427.9,45.1 424.6,49C423.4,49.1 422.6,49.1 421.8,49.2C421.8,49.2 421.9,49.1 421.8,48.8C416.7,46.4 411.8,44.3 406.8,42.1C406.8,42.1 406.9,42.1 406.9,42.2z" />
<path fill="#0495D5" d="M514.8,456.8C515.6,456.9 516.4,456.9 517.3,457C523.4,457.3 524.3,458.4 523.1,464.7C523.1,465.1 523.1,465.1 522.8,465.1C522.2,465.9 522,466.6 521.7,467.4C521.7,467.4 521.6,467.5 521.2,467.5C519.9,469 519,470.6 518.1,472.2C518.1,472.2 518.1,472.1 518,472.1C517.7,472.2 517.5,472.3 517.5,472.3C517.6,472.5 517.7,472.8 517.8,473C510.5,483.3 503.3,493.6 495.6,503.8C492.9,500.8 493.2,494.7 486.9,496.4C494.3,485.7 501.6,475.3 509.1,465.1C509.5,464.8 509.7,464.3 509.9,463.9C509.9,463.9 509.8,463.9 510.2,463.8C511,462.8 511.4,461.8 511.9,460.9C512,461 511.9,460.9 512.2,460.9C513.4,459.5 514.1,458.2 514.8,456.8C514.8,456.8 514.8,456.8 514.8,456.8z" />
<path fill="#27B9E0" d="M514.8,86.7C512,88.3 507.7,88.9 506.3,91.2C502.9,96.7 499.4,102.5 500,109.5C500.1,111.8 499.8,114.1 499.3,116.7C496.1,113.2 493.2,109.4 490.3,105.2C489.8,104.2 489.3,103.7 488.7,103.2C488.7,103.2 488.8,103.1 488.7,102.9C488.4,102.5 488,102.3 487.7,102.1C487.4,102.1 487.2,101.9 486.9,101.2C486.5,100.5 486.2,100.3 485.9,100C485.9,100 486,100 486,99.7C485.6,99 485.3,98.5 485,97.7C485,97.5 485,97 485.3,96.8C487.1,92.8 488.1,88.6 490.1,85C492.5,80.9 491.9,74.1 499.2,73.9C499.2,73.9 499.1,73.9 499.2,74.1C499.6,74.5 499.9,74.7 500.2,74.9C500.2,74.9 500.1,74.9 500.3,75.2C500.8,75.6 501.2,75.7 501.6,75.9C505.9,79.4 510.3,82.9 514.8,86.7z" />
<path fill="#0495D5" d="M240.8,581.6C231.3,577.3 221.8,573 212.3,568.1C208.8,565.4 205.4,563.2 202.3,560.8C203.7,559.2 205.7,557.7 205.8,556.1C206.1,553 207.8,552.9 210,553C210,553 210,553 210.1,553.3C211.2,554 212.2,554.2 213.3,554.5C213.3,554.5 213.4,554.5 213.4,554.8C214,555.3 214.6,555.3 215.3,555.4C215.4,555.4 215.5,555.4 215.5,555.8C216.3,556.4 217.2,556.7 218.1,556.9C218,556.9 218,556.9 218.2,557.1C218.9,557.6 219.6,557.7 220.1,557.9C220.1,557.9 220.1,557.8 220.2,558.1C220.9,558.6 221.5,558.7 222.1,558.9C222,558.9 222,558.9 222.2,559.2C223.6,560 224.9,560.4 226.1,560.9C226.1,560.9 226.1,560.8 226.2,561.1C227,561.5 227.6,561.7 228.2,561.8C228.1,561.9 228.1,561.7 228.2,562C229,562.5 229.6,562.6 230.2,562.8C230.1,562.8 230.1,562.7 230.2,563C230.9,563.5 231.5,563.7 232.1,563.9C232,564 232,563.9 232.1,564.1C232.8,564.3 233.4,564.3 234.3,564.4C238.9,566.4 243.1,568.4 247,570.5C245.6,571.4 244.2,571.8 243.6,572.8C242.6,574.3 242.1,576 241.6,577.7C241.2,579 241,580.3 240.8,581.6z" />
<path fill="#1DB5E1" d="M499,73.6C491.9,74.1 492.5,80.9 490.1,85C488.1,88.6 487.1,92.8 485.1,96.6C484,96.4 483.4,96.3 482.8,96.2C482.8,96.2 482.8,96.1 482.8,95.9C482.4,95.5 482,95.3 481.7,95.1C478.7,92.1 475.8,89.2 473.1,85.8C474.2,84.5 475.7,83 475.6,82.8C472.2,78.2 476.3,74.7 477.2,70.7C478.3,66 481.3,63.7 486.2,63.9C486.5,63.9 486.7,64 487,64.6C487.4,65.1 487.7,65.1 488,65.2C491.6,67.9 495.2,70.6 499,73.6z" />
<path fill="#03AEE1" d="M326.1,584.1C324.6,580.2 322.6,576.9 317.3,577C324.6,567.6 332.2,558.2 339.8,548.8C340.3,548.2 340.6,547.4 340.9,546.4C344,548.7 347.3,551.4 350.7,554.4C342.7,564.5 334.4,574.3 326.1,584.1z" />
<path fill="#0495D5" d="M237.9,530.1C241.6,528.1 245.4,526.1 249.5,524C255.5,532.1 261.3,540.1 266.6,548.6C265.5,550.2 264.3,551.3 264.1,552.5C263.6,556.2 263.5,559.9 263.1,563.4C254.5,552.2 246.2,541.1 237.9,530.1z" />
<path fill="#04A3DC" d="M463.8,77.2C458.3,73 452.8,68.8 447,64.1C446.4,63.4 446.1,63.2 445.8,63.1C445.8,63.1 445.9,63.1 445.8,62.9C445.4,62.5 445,62.4 444.7,62.3C444.7,62.3 444.8,62.2 444.7,62C444,61.5 443.4,61.3 442.8,61.1C442.8,61.1 442.9,61.1 443,60.8C444.9,57.4 447.4,54.5 448.7,51.1C450.2,47.4 452.2,45.5 456.2,45.8C456.2,45.8 456.1,45.8 456.2,46.1C457.1,46.6 458.1,46.9 459,47.2C463.2,49.6 467.5,52 471.6,54.8C464.7,58.3 464.3,65.2 462.2,71C461.6,72.7 463.2,75.1 463.8,77.2z" />
<path fill="#016EB4" d="M119.1,437.1C122.2,434.8 125.3,432.5 128.7,430.1C137.9,436.7 146.9,443.5 155.9,450.6C156,451 155.9,451.1 155.6,451.1C151.2,453.2 148.2,456 149.4,461.1C139.1,453.3 129.1,445.6 119,437.7C119,437.5 119.1,437.1 119.1,437.1z" />
<path fill="#04A3DC" d="M240.8,581.6C241,580.3 241.2,579 241.6,577.7C242.1,576 242.6,574.3 243.6,572.8C244.2,571.8 245.6,571.4 247,570.6C247.4,570.4 247.4,570.5 247.4,570.9C249,571.8 250.6,572.3 252.2,572.8C252.1,572.8 252.1,572.7 252.2,573C253.5,573.6 254.7,573.9 256.3,574.2C263.2,577.1 269.7,579.9 276.2,582.7C275.4,583.7 274,584.6 273.8,585.7C273.2,590.2 275,594 278,597.6C270.7,594.9 263.5,591.8 256.2,588.2C254.7,587.3 253.2,586.9 251.7,586.4C251.7,586.4 251.7,586.5 251.7,586.1C251,585.7 250.4,585.6 249.8,585.6C249.8,585.6 249.6,585.6 249.6,585.2C247.3,584 245,583.3 242.8,582.5C242.8,582.5 242.7,582.6 242.6,582.2C242,581.8 241.4,581.7 240.8,581.6C240.8,581.6 240.8,581.6 240.8,581.6z" />
<path fill="#047EC4" d="M138.2,527.1C140.6,524.2 143.1,521.3 146.1,518.4C155.5,523.5 164.3,528.6 172.8,533.8C171.1,535 168.9,535.9 168.7,537.2C168.2,539.7 168.8,542.4 168.9,545.1C168.7,545.3 168.5,545.7 168.5,545.7C158.8,540.1 149.1,534.5 139,528.6C138.6,527.8 138.4,527.5 138.2,527.1z" />
<path fill="#0495D5" d="M456,45.5C452.2,45.5 450.2,47.4 448.7,51.1C447.4,54.5 444.9,57.4 442.9,60.8C437.1,57.9 431.4,54.5 425.3,50.8C425,49.9 425,49.4 425,49C427.9,45.1 430.7,41.1 433.9,36.7C434.6,36.9 436.5,37.4 438.8,38C439.1,38 439.6,38 440,38.3C441,38.7 441.6,38.7 442.2,38.8C442.2,38.8 442.1,38.9 442.2,39.1C443,39.5 443.6,39.7 444.2,39.8C444.2,39.8 444.1,39.8 444.2,40.1C444.9,40.5 445.5,40.7 446.1,40.9C446.1,40.9 446,41 446.2,41.2C447.1,41.6 447.8,41.7 448.5,41.9C450.9,43 453.4,44.1 456,45.5z" />
<path fill="#12AEE1" d="M463.8,77.2C463.2,75.1 461.6,72.7 462.2,71C464.3,65.2 464.7,58.3 471.8,55.1C476.7,57.8 481.2,60.6 486,63.7C481.3,63.7 478.3,66 477.2,70.7C476.3,74.7 472.2,78.2 475.6,82.8C475.7,83 474.2,84.5 472.9,85.5C471.7,85 470.9,84.3 470,83.1C469.2,82 468.5,81.5 467.8,81C467.5,81 467.3,80.9 466.9,80.1C466.4,79.5 466.1,79.3 465.8,79.1C465.5,79.1 465.2,78.9 464.9,78.2C464.4,77.5 464.1,77.3 463.8,77.1C463.8,77.1 463.8,77.2 463.8,77.2z" />
<path fill="#0270B8" d="M186.1,114.2C184.9,112.6 183.3,111.2 182.4,109.5C181.7,107.9 181.9,106 181.6,103.7C181.5,103.2 181.6,103.2 182,103.4C183.5,102.7 184.7,101.7 185.9,100.8C185.9,100.9 185.8,100.8 186.1,100.9C187.3,100.2 188.1,99.5 189,98.9C189,99 188.9,98.9 189.2,98.9C190,98.5 190.4,98.1 190.8,97.7C190.9,97.8 190.8,97.8 191.1,97.8C192.3,97.2 193.1,96.5 193.9,95.8C193.9,95.9 193.8,95.9 194.2,95.9C195.5,95.1 196.4,94.3 197.4,93.4C197.5,93.4 197.6,93.3 197.9,93.4C198.4,93.3 198.6,93 198.8,92.7C198.9,92.8 198.7,92.8 199.1,92.8C200.3,92.2 201.1,91.5 201.9,90.9C201.9,90.9 201.8,90.9 202.2,90.9C204,89.9 205.4,88.8 206.9,87.8C206.9,87.9 206.8,87.8 207,87.9C207.5,87.6 207.7,87.3 208,86.7C208.4,86.3 208.7,86.1 209,85.9C211.1,89.1 213.1,92.2 215.2,95.8C212.4,98 209.5,99.9 206.2,101.7C205.6,101.8 205.4,102 205.2,102.3C205.2,102.3 205.1,102.1 204.8,102.1C203.7,102.8 202.9,103.5 202.1,104.2C202.1,104.2 202.1,104.1 201.8,104.1C201.1,104.5 200.6,105 200.2,105.4C200.2,105.4 200.2,105.3 199.9,105.2C197.7,106.5 195.9,107.8 194.1,109.2C194.1,109.2 194.1,109.1 193.7,109.1C192.6,109.7 191.8,110.4 191.1,111.1C191.1,111.1 191,111 190.7,111C189,112.1 187.5,113.2 186.1,114.2C186.1,114.2 186.1,114.2 186.1,114.2z" />
<path fill="#04A3DC" d="M263.3,563.6C263.5,559.9 263.6,556.2 264.1,552.5C264.3,551.3 265.5,550.2 266.7,548.9C267.1,548.8 267.1,548.9 267.1,549.2C268.1,550.7 269.1,551.8 270.2,552.9C270.2,552.9 270.1,553 270.1,553.2C270.6,553.8 271,554.1 271.5,554.4C271.5,554.4 271.6,554.5 271.5,554.9C272.3,556.1 273.2,557 274.1,557.9C274.1,557.9 274.1,558 274.1,558.3C274.9,559.3 275.7,559.9 276.4,560.6C276.4,560.6 276.4,560.8 276.3,561C276.9,561.9 277.5,562.4 278.2,562.9C278.2,562.9 278.1,563 278.1,563.3C279.5,565 280.9,566.5 282.3,567.9C284.6,570.4 286.8,572.8 289.2,575.6C285.9,577.8 281,577.5 279.2,582.4C277.2,580.4 275.6,578.3 273.8,576C273.5,575.5 273.2,575.3 272.9,575C273,575 272.9,575.1 272.9,574.8C272.2,574 271.6,573.5 271,573C271,573 271,573.1 271,572.7C270.5,572 270.1,571.5 269.8,571.1C269.9,571.1 269.9,571.2 269.8,571C269.4,570.5 269.1,570.3 268.5,570C268.1,569.7 268,569.4 268,568.7C266.9,567.3 265.9,566.2 264.9,565.1C264.9,565.1 264.9,565.2 264.9,564.8C264.4,564.2 264,563.9 263.5,563.6C263.4,563.7 263.3,563.6 263.3,563.6z" />
<path fill="#0495D5" d="M433.1,484.1C434.5,479.8 432.2,478.8 428.6,479C426,479.2 423.4,479.7 420.3,480C427.4,474 435,468.2 442.5,462.1C443.6,461.2 444,459.3 444.7,457.5C447.5,461.3 450.4,465.5 452.8,470C445.9,474.9 439.5,479.5 433.1,484.1z" />
<path fill="#047EC4" d="M205.8,488C206,488.9 206,489.6 205.7,490.4C203.2,488.5 201,486.5 198.9,484.7C196.1,486.9 194.1,488.5 192.1,490.1C192.5,490.3 192.9,490.4 193.3,490.6C192.9,492.1 192.5,493.6 192,495C192,495 191.9,494.9 191.9,494.5C188.3,491.1 184.6,488.1 181.1,484.9C180.8,484.5 180.3,484.3 179.9,484.1C179.9,484.1 179.9,484.2 179.8,483.9C179.4,483.5 179,483.3 178.8,483.2C178.9,483.1 178.9,483.3 178.8,483C178.1,482.5 177.5,482.3 176.6,482C176.1,481.8 176,481.5 175.8,480.9C175.4,480.5 175.1,480.3 174.8,480.1C174.9,480.1 174.8,480.2 174.9,479.9C175,479 175,478.5 175.3,477.7C175.4,474 175.2,470.5 175.3,467.1C176,467.5 176.5,467.7 177.3,467.9C177.9,467.8 178.1,467.7 178.3,467.6C178.3,467.6 178.3,467.8 178.3,468C178.7,468.3 179,468.4 179.4,468.4C179.4,468.4 179.5,468.5 179.5,468.8C180,469.4 180.6,469.6 181.2,469.9C181.2,469.9 181.1,469.9 181.2,470.1C181.7,470.5 182,470.6 182.4,470.7C182.4,470.7 182.2,470.7 182.3,471C183.3,471.8 184.2,472.4 185.2,472.9C185.2,472.9 185.1,472.9 185.2,473.1C185.6,473.5 185.9,473.7 186.2,473.9C192.6,478.6 199,483.2 205.8,488z" />
<path fill="#04A3DC" d="M486.8,496.7C493.2,494.7 492.9,500.8 495.4,504C495.6,504.4 495.5,504.4 495.2,504.4C494.6,505 494.3,505.6 494.1,506.2C494.1,506.2 494.1,506.1 493.8,506.2C493.4,506.9 493.2,507.5 493,508.1C493.1,508.4 492.9,508.7 492.1,509.1C491.1,510.2 490.6,511.2 490.1,512.1C490.1,512.1 490,512 489.7,512.1C488.9,513.1 488.5,514.1 488,515.1C488,515.1 488,515 487.7,515.1C486.6,516.5 485.9,517.8 485.1,519.2C485.1,519.2 485.1,519.1 484.8,519.1C484.4,519.7 484.2,520.4 484,521C482.4,523.4 480.8,525.9 479.2,528.6C477,526.1 474.8,523.2 472.2,519.8C471.7,519.1 471.6,518.9 471.5,518.7C471.6,518.8 471.5,518.7 471.9,518.6C472.4,518 472.7,517.4 472.9,516.9C472.9,516.9 472.8,516.9 473.1,516.8C473.5,516.4 473.6,516 473.7,515.7C473.7,515.8 473.6,515.7 473.9,515.7C474.5,515 474.7,514.4 474.9,513.9C474.9,513.9 474.8,513.9 475.1,513.8C476,512.8 476.4,511.8 476.9,510.9C477,511 476.9,511 477.1,510.8C477.5,510.4 477.7,510.1 477.8,509.8C477.9,509.9 477.7,509.8 478,509.8C478.4,509.3 478.5,509 478.6,508.7C478.6,508.8 478.5,508.6 478.9,508.6C479.4,508 479.6,507.4 479.9,506.9C479.9,506.9 479.8,506.9 480.2,506.9C480.8,506.1 481,505.4 481.3,504.5C481.3,504.4 481.5,504.3 481.8,504.4C482.8,503.3 483.3,502.1 483.9,500.9C484,501 483.9,500.9 484.2,500.9C485.3,499.5 486.1,498.1 486.8,496.8C486.8,496.8 486.8,496.7 486.8,496.7z" />
<path fill="#0467B1" d="M35.1,386.4C37.9,384 40.9,381.9 44.2,379.4C44.5,379.1 44.9,379 45,379.3C50.1,388.1 55.1,396.5 60.1,404.9C58.8,404.3 57.5,403.8 56.1,403.1C55.3,404.1 54.6,405 53.8,406.1C51.9,404.5 50.2,403.1 47.5,400.7C47.7,403.6 47.8,405 47.9,406.7C43.7,400.3 39.4,393.5 35.1,386.4z" />
<path fill="#0D5BAA" d="M94.1,344.5C91.5,337 88.6,329.1 86.2,321.1C81.4,304.9 76.8,288.7 72.3,272.4C69.1,260.8 66.4,249.1 63.7,238.1C57.2,237.7 51.2,237.4 44.7,237C44.2,236.6 44.2,236.3 44.4,235.8C50.5,235.6 56.5,235.7 63,235.5C63.9,235.8 64.7,236.4 65,237.2C74.5,271.5 84.1,305.8 93.6,340.2C93.9,341.5 93.9,342.8 94.1,344.5z" />
<path fill="#0D5BAA" d="M44.1,238.4C44,241.5 44.3,245.2 43.6,248.6C37.8,276.9 31.9,305.1 25.9,333.4C25.5,335.3 24.6,337 23.6,338.9C30.1,305.6 37,272.2 44.1,238.4z" />
<path fill="#0D5BAA" d="M215.5,32.8C211.6,34.7 207.4,36.7 203,38.4C194.2,41.9 185.3,45.3 176.4,48.7C175.9,48.9 175.1,48.7 174.3,48.4C187.7,43.1 201.4,38 215.5,32.8z" />
<path fill="#036EB6" d="M382,19C370.2,17.2 358.3,15.3 346.3,13.2C357.8,14.6 369.5,16.2 381.6,18.2C382,18.6 382,19 382,19z" />
<path fill="#0270B8" d="M382.2,19.3C382,19 382,18.6 382,18.4C392.6,21.2 403.2,24.2 414,27.6C407.3,26.1 400.5,24.2 393.7,22.4C392.8,22.2 391.8,22.1 390.4,22C387.5,21.2 385,20.4 382.2,19.3z" />
<path fill="#03AEE1" d="M338.6,518.1C338.3,520.7 337.9,523.7 337,526.4C334.7,533 338.2,538.5 339.9,544.7C333.3,536.5 333.5,527.5 338.6,518.1z" />
<path fill="#1DB5E1" d="M110.2,527.3C110.9,527.1 112.1,527 112.8,527.5C119.3,531.4 126.1,531.7 133.7,530C125.7,534.1 117.8,532.9 110.2,527.3z" />
<path fill="#12AEE1" d="M12.6,357C12.3,359.4 11.2,362 11.4,364.5C11.9,369.2 13.1,373.7 13.9,378.7C8.4,372.2 8.4,364.9 12.6,357z" />
<path fill="#0D5BAA" d="M238.5,25.8C236.9,26.7 235,27.9 232.9,28.5C227.5,30.1 222.1,31.5 216.3,32.9C223.3,30.5 230.7,28.2 238.5,25.8z" />
<path fill="#27B9E0" d="M246.4,87.8C245.7,81.5 247.2,74.6 243.2,68.1C243.9,68.2 244.6,68.6 245.6,69.1C247.3,75.2 249.7,81.3 246.4,87.8z" />
<path fill="#27B9E0" d="M592.4,406C593.1,403 594.5,400 594.9,396.8C595.3,392.5 595,388.1 595,383.2C598.6,390.9 597.3,398.5 592.4,406z" />
<path fill="#27B9E0" d="M558.3,414.9C557.9,414.8 557.9,414.5 557.8,414.3C564.3,414.8 570.8,415.4 577.7,416C571.5,419.7 565.1,417.6 558.3,414.9z" />
<path fill="#0D5BAA" d="M258.6,20.3C256.9,21.2 254.9,22.6 252.7,23.1C248.4,24.3 244,25 239.2,25.9C245.3,24 251.7,22.2 258.6,20.3z" />
<path fill="#1DB5E1" d="M520,146.4C526.4,147.5 532.9,149.5 539.8,146.2C533.7,151.4 527,149.9 520,146.4z" />
<path fill="#04A3DC" d="M374.9,509.7C369,509 363,508 356.5,506.8C356,506.6 356,506.2 356,506.2C362.7,504.5 368.9,505.8 374.9,509.7z" />
<path fill="#12AEE1" d="M18.1,383.3C23.1,383.8 28.2,384.6 33.7,385.6C28.3,388.2 23.2,386.5 18.1,383.3z" />
<path fill="#047EC4" d="M407,42.4C411.8,44.3 416.7,46.4 421.8,48.9C417,47.1 412.1,44.9 407,42.4z" />
<path fill="#0467B1" d="M87.3,130.4C90,126 92.6,121.6 95.6,117.1C96,117 96.1,117 96,117.4C93.4,122.2 90.7,126.6 87.9,130.9C87.7,130.7 87.3,130.4 87.3,130.4z" />
<path fill="#0467B1" d="M98.4,112.5C101,108.4 103.6,104.3 106.6,100.1C107,100 107.1,100.1 107,100.4C104.4,104.9 101.7,108.9 98.9,112.9C98.7,112.7 98.4,112.5 98.4,112.5z" />
<path fill="#03AEE1" d="M312.9,575.6C307.9,575.5 302.7,575.1 297.3,574.4C302.4,572.1 307.6,573.2 312.9,575.6z" />
<path fill="#0D5BAA" d="M104.2,375.5C102.5,371.2 100.8,366.4 99,361.3C100.7,365.6 102.4,370.4 104.2,375.5z" />
<path fill="#1DB5E1" d="M106.6,72.2C107.6,77.1 108.3,82.2 108.9,87.7C105.2,83.4 105.6,77.9 106.6,72.2z" />
<path fill="#047EC4" d="M202,561C205.4,563.2 208.8,565.4 212.1,567.9C207,565.7 202,563.3 197,560.6C196.8,560.2 197,560 197.4,560C199.1,560.4 200.6,560.7 202,561z" />
<path fill="#047EC4" d="M196.7,560.4C192.1,558.2 187.7,556 183.1,553.4C183,553 183,552.9 183.4,553C188.2,555.3 192.6,557.6 197,560C197,560 196.8,560.2 196.7,560.4z" />
<path fill="#04A3DC" d="M30.7,347.5C27.2,348.8 23.4,349.9 19.2,350.9C19.6,349.7 20.4,348.6 21.5,347.3C24.6,347.1 27.5,347.2 30.7,347.5z" />
<path fill="#27B9E0" d="M573.9,365.6C569.3,366.6 564.5,367.3 559.3,367.9C563.4,364.8 568.4,364.5 573.9,365.6z" />
<path fill="#0467B1" d="M66.5,179.6C64.6,179.1 62.7,178.6 60.4,178C61.5,175.4 62.8,172.8 64.6,170C64.9,169.9 65.1,170 65,170.4C64.2,172.7 63.4,174.6 62.5,176.6C64.2,177.5 65.6,178.2 66.9,179.1C66.8,179.3 66.5,179.6 66.5,179.6z" />
<path fill="#0467B1" d="M77.8,146.8C79.9,143.2 81.9,139.5 84.3,135.7C84.7,135.7 85,136 85,136.4C82.6,140.2 80.4,143.6 78,147C77.9,146.9 77.8,146.8 77.8,146.8z" />
<path fill="#0495D5" d="M444.4,445.1C444.8,448.6 444.8,452.5 444.8,456.7C444.5,453.3 444.3,449.3 444.4,445.1z" />
<path fill="#0467B1" d="M112.8,93.3C113.5,94 114.1,94.7 114.9,95.7C115,96 115,96 114.6,96C113,96.3 111.6,96.5 110.5,97.1C109.2,97.9 108.2,99.1 107.1,100.1C107.1,100.1 107,100 106.9,99.9C108.2,97.8 109.6,95.6 111.4,93.3C112.2,93.1 112.5,93.2 112.8,93.3z" />
<path fill="#12AEE1" d="M121.9,400.7C118.6,399.8 115,398.6 111.2,397.1C114.6,398 118.2,399.2 121.9,400.7z" />
<path fill="#0467B1" d="M53.9,417.4C55.9,420.2 57.9,423.3 59.9,426.8C57.9,424 55.9,420.9 53.9,417.4z" />
<path fill="#0467B1" d="M76.9,455.4C78.6,457.5 80.3,459.9 81.9,462.7C80.3,460.7 78.7,458.2 76.9,455.4z" />
<path fill="#047EC4" d="M178.9,551.1C176.7,550 174.4,548.9 172,547.4C171.9,547.1 172,546.9 172.4,547C174.9,548.3 177,549.6 179,551C179,551 178.9,551.1 178.9,551.1z" />
<path fill="#0467B1" d="M73.8,153.8C74.9,151.6 76.1,149.4 77.5,147C77.8,146.8 77.9,146.9 78,147.4C76.7,149.9 75.4,152 74,154C73.9,153.9 73.8,153.8 73.8,153.8z" />
<path fill="#27B9E0" d="M545.3,123.6C544.2,121.9 543.1,119.8 542,117.3C543.1,119 544.1,121.1 545.3,123.6z" />
<path fill="#0495D5" d="M243,582.7C245,583.3 247.3,584 249.5,585.2C247.4,584.7 245.3,583.8 243,582.7z" />
<path fill="#03AEE1" d="M355.6,506.2C356,506.2 356,506.6 356,506.8C353.9,507.6 351.8,508.3 349.2,508.9C351,508 353.1,507 355.6,506.2z" />
<path fill="#03AEE1" d="M348.5,508.9C347.1,510.2 345.4,511.6 343.2,512.9C344.7,511.6 346.4,510.3 348.5,508.9z" />
<path fill="#0467B1" d="M123.7,154.6C121.8,155.8 119.9,157.1 117.7,158.3C117.3,158.3 117,158 117.1,157.7C119.2,156.3 121.1,155.1 123.2,154.1C123.3,154.3 123.7,154.6 123.7,154.6z" />
<path fill="#0467B1" d="M194.4,109.1C195.9,107.8 197.7,106.5 199.9,105.2C198.4,106.5 196.6,107.8 194.4,109.1z" />
<path fill="#0467B1" d="M70.3,159.5C71.3,157.7 72.2,155.9 73.5,154C73.8,153.8 73.9,153.9 74,154.3C73,156.5 72,158.3 70.8,159.9C70.7,159.7 70.3,159.5 70.3,159.5z" />
<path fill="#0467B1" d="M66.3,166.5C67.3,164.7 68.3,163 69.6,161.1C69.9,160.9 70.1,161 70,161.4C69,163.5 68,165.3 66.8,166.9C66.7,166.7 66.3,166.5 66.3,166.5z" />
<path fill="#0467B1" d="M68.6,442C69.6,443.3 70.8,444.8 71.9,446.7C70.9,445.5 69.8,443.9 68.6,442z" />
<path fill="#0467B1" d="M50.9,412.5C51.9,413.6 52.9,415 53.9,416.8C52.9,415.7 51.9,414.2 50.9,412.5z" />
<path fill="#0467B1" d="M59.9,427.5C60.9,428.6 61.9,430 62.9,431.8C61.9,430.7 60.9,429.3 59.9,427.5z" />
<path fill="#0495D5" d="M270.1,552.6C269.1,551.8 268.1,550.7 267.1,549.2C268.1,550 269,551.1 270.1,552.6z" />
<path fill="#0467B1" d="M73.9,450.4C74.9,451.5 75.9,452.9 76.9,454.7C75.9,453.7 74.9,452.2 73.9,450.4z" />
<path fill="#0467B1" d="M83.2,181.2C81.8,182.2 80.4,183.2 78.7,184.2C78.2,184.2 78,184 78,183.6C79.7,182.5 81.3,181.7 83,181C83.1,181 83.2,181.2 83.2,181.2z" />
<path fill="#0495D5" d="M282.2,567.6C280.9,566.5 279.5,565 278.1,563.2C279.4,564.3 280.7,565.8 282.2,567.6z" />
<path fill="#0467B1" d="M47.9,407.4C48.9,408.5 49.9,410 50.9,411.8C49.9,410.7 48.9,409.2 47.9,407.4z" />
<path fill="#0486CB" d="M518.4,472C519,470.6 519.9,469 521.2,467.5C520.6,469.1 519.7,470.5 518.4,472z" />
<path fill="#0467B1" d="M65.9,437.5C66.8,438.3 67.7,439.5 68.4,441C67.4,440.2 66.7,439 65.9,437.5z" />
<path fill="#0467B1" d="M186.4,114.1C187.5,113.2 189,112.1 190.7,111.1C189.7,112.1 188.2,113.1 186.4,114.1z" />
<path fill="#0467B1" d="M84.5,135.5C85.2,133.8 86.1,132.4 87.1,130.7C87.3,130.4 87.7,130.7 87.8,131.2C87,133.1 86,134.6 85,136C85,136 84.7,135.7 84.5,135.5z" />
<path fill="#0467B1" d="M62.8,432.4C63.8,433.6 64.9,435 65.9,436.8C64.9,435.7 63.9,434.2 62.8,432.4z" />
<path fill="#016EB4" d="M156.1,450.9C157.4,451.7 158.6,452.5 159.9,453.7C160,454 159.9,454.1 159.6,454C158.1,453 157,452 155.9,451.1C155.9,451.1 156,451 156.1,450.9z" />
<path fill="#016EB4" d="M160.1,453.9C161.3,454.7 162.6,455.5 163.9,456.7C164,457 164,457.1 163.6,457C162.2,456 161,455 159.9,454.1C159.9,454.1 160,454 160.1,453.9z" />
<path fill="#0495D5" d="M485.4,519C485.9,517.8 486.6,516.5 487.7,515.1C487.3,516.3 486.5,517.6 485.4,519z" />
<path fill="#0467B1" d="M85.8,469.4C86.7,470.3 87.7,471.5 88.5,473.1C87.5,472.2 86.7,471 85.8,469.4z" />
<path fill="#27B9E0" d="M535.2,107.6C534.3,107.1 533.2,106.3 532.2,105.1C533.2,105.6 534.1,106.5 535.2,107.6z" />
<path fill="#0495D5" d="M274.1,557.6C273.2,557 272.3,556.1 271.5,554.9C272.5,555.5 273.2,556.4 274.1,557.6z" />
<path fill="#1DB5E1" d="M137.8,527.1C138.4,527.5 138.6,527.8 138.8,528.3C137.8,528.8 136.9,529 135.5,529.3C135.9,528.5 136.7,527.8 137.8,527.1z" />
<path fill="#0467B1" d="M77.8,185.3C76.8,185.2 76,184.9 75.1,184.4C75,184 75.1,183.9 75.4,184C76.5,184 77.3,184 78,184C78,184 78.2,184.2 78.4,184.3C78.4,184.7 78.2,185 77.8,185.3z" />
<path fill="#0467B1" d="M88.6,474C89.3,474.6 90.1,475.5 90.9,476.8C90.2,476.2 89.5,475.2 88.6,474z" />
<path fill="#0467B1" d="M92.9,480.4C93.7,481.3 94.7,482.5 95.5,484.1C94.5,483.2 93.7,482 92.9,480.4z" />
<path fill="#0495D5" d="M251.9,586.7C253.2,586.9 254.7,587.3 256,587.9C254.5,587.7 253.3,587.3 251.9,586.7z" />
<path fill="#1DB5E1" d="M516,141C516,141.5 516,142 515.9,142.8C514.9,142 513.9,140.9 512.9,139.4C513,139.1 513.2,139 513.8,139.3C514.8,140 515.4,140.5 516,141z" />
<path fill="#0467B1" d="M127.1,152.1C126.1,152.8 125.2,153.6 124,154.5C123.7,154.6 123.3,154.3 123.3,153.8C124.5,152.9 125.7,152.4 127,152C127,152 127.1,152.1 127.1,152.1z" />
<path fill="#03AEE1" d="M340.7,515C340.5,515.9 340.1,516.9 339.2,517.9C339.4,517 339.9,516.1 340.7,515z" />
<path fill="#047EC4" d="M424.6,49C425,49.4 425,49.9 425,50.6C424,50.5 423.1,50.1 422,49.4C422.6,49.1 423.4,49.1 424.6,49z" />
<path fill="#27B9E0" d="M549.7,375C549.5,375.9 549,376.9 548.2,378C548.3,377.1 548.9,376.2 549.7,375z" />
<path fill="#0495D5" d="M488.3,514.9C488.5,514.1 488.9,513.1 489.8,512.1C489.6,513 489.1,513.9 488.3,514.9z" />
<path fill="#0467B1" d="M101.2,169.2C100.1,169.9 99,170.7 97.6,171.5C97.2,171.4 97,171 97.2,170.7C98.6,170 99.8,169.4 101,169C101.1,169.1 101.2,169.2 101.2,169.2z" />
<path fill="#0467B1" d="M83.6,466.1C84.3,466.7 85.1,467.6 85.9,468.8C85.1,468.2 84.4,467.3 83.6,466.1z" />
<path fill="#0467B1" d="M191.4,111.1C191.8,110.4 192.6,109.7 193.8,109.1C193.3,109.7 192.5,110.4 191.4,111.1z" />
<path fill="#0467B1" d="M71.9,447.4C72.6,447.8 73.3,448.6 73.9,449.8C73.3,449.3 72.6,448.5 71.9,447.4z" />
<path fill="#27B9E0" d="M542,116.7C541.4,116.2 540.7,115.4 540,114.3C540.7,114.7 541.3,115.5 542,116.7z" />
<path fill="#27B9E0" d="M243.3,92.9C243.5,92.1 243.9,91.1 244.8,90.1C244.6,91 244.1,91.8 243.3,92.9z" />
<path fill="#0467B1" d="M137.4,145.5C136.7,146.2 135.9,146.8 134.6,147.3C134.3,147.3 134,147 134.1,146.7C135.2,145.9 136.1,145.4 137,145C137,145 137.3,145.3 137.4,145.5z" />
<path fill="#0467B1" d="M133.2,148.2C132.1,148.9 131.1,149.7 129.7,150.4C129.2,150.2 129.1,150.1 129.2,149.7C130.6,148.9 131.8,148.4 133,148C133.1,148.1 133.2,148.2 133.2,148.2z" />
<path fill="#047EC4" d="M182.9,553.1C181.7,552.7 180.5,552.2 179.1,551.4C178.9,551.1 179,551 179.4,551C180.8,551.6 181.9,552.3 183,552.9C183,552.9 183,553 182.9,553.1z" />
<path fill="#016EB4" d="M169.2,460.8C170.1,461.3 171,461.8 171.9,462.7C172,463 172,463.1 171.6,463C170.5,462.3 169.7,461.7 169,461C169.1,460.9 169.2,460.8 169.2,460.8z" />
<path fill="#27B9E0" d="M593.1,377.7C592.6,377.4 592,376.9 591.7,376.2C592.3,376.5 592.7,376.9 593.1,377.7z" />
<path fill="#0D5BAA" d="M105.1,379.6C104.8,378.8 104.4,377.7 104.1,376.2C104.4,377 104.8,378.1 105.1,379.6z" />
<path fill="#016EB4" d="M165.2,457.8C166.1,458.3 167,458.8 167.9,459.7C168,460 168,460.1 167.6,460C166.5,459.3 165.7,458.7 165,458C165.1,457.9 165.2,457.8 165.2,457.8z" />
<path fill="#0486CB" d="M521.9,467.2C522,466.6 522.2,465.9 522.8,465.1C522.8,465.7 522.5,466.4 521.9,467.2z" />
<path fill="#0270B8" d="M185,472.6C184.2,472.4 183.3,471.8 182.3,470.9C183.2,471.2 184,471.7 185,472.6z" />
<path fill="#0495D5" d="M458.7,47C458.1,46.9 457.1,46.6 456.2,46C456.9,46.1 457.7,46.5 458.7,47z" />
<path fill="#0467B1" d="M90.9,477.4C91.5,477.9 92.2,478.7 92.9,479.8C92.2,479.4 91.6,478.5 90.9,477.4z" />
<path fill="#0495D5" d="M418.6,480.8C418.4,481.3 417.8,481.8 417.1,482.2C417.4,481.6 417.8,481.2 418.6,480.8z" />
<path fill="#0467B1" d="M95.6,485C96.1,485.4 96.8,486 97.2,486.8C96.6,486.4 96.2,485.8 95.6,485z" />
<path fill="#0467B1" d="M64.9,169.9C65.2,168.9 65.6,168 66.1,166.8C66.3,166.5 66.7,166.7 66.8,167.2C66.3,168.4 65.7,169.2 65.1,170C65.1,170 64.9,169.9 64.9,169.9z" />
<path fill="#12AEE1" d="M482.8,96.5C483.4,96.3 484,96.4 484.8,96.8C485,97 485,97.5 484.8,97.7C484.6,98 484.1,98 484.1,98C483.7,97.6 483.3,97.1 482.8,96.5z" />
<path fill="#0467B1" d="M116.2,159.2C115.4,159.8 114.6,160.4 113.4,161.1C113.1,161.1 113,160.9 113.1,160.7C114.2,159.9 115.1,159.4 116,159C116.1,159.1 116.2,159.2 116.2,159.2z" />
<path fill="#0467B1" d="M129.4,150.6C128.9,151.2 128.3,151.6 127.4,152.1C127.1,152.1 127,152 127,151.7C127.7,150.9 128.3,150.4 129,150C129.1,150.1 129.2,150.2 129.4,150.6z" />
<path fill="#1DB5E1" d="M112.8,92.9C112.5,93.2 112.2,93.1 111.6,93C111.3,92.5 111.2,92.1 110.9,91.4C111.5,91.6 112.2,92.1 112.8,92.9z" />
<path fill="#0467B1" d="M202.4,104.1C202.9,103.5 203.7,102.8 204.9,102.1C204.4,102.8 203.5,103.4 202.4,104.1z" />
<path fill="#0495D5" d="M276.3,560.3C275.7,559.9 274.9,559.3 274.1,558.2C274.8,558.6 275.5,559.3 276.3,560.3z" />
<path fill="#0467B1" d="M95.9,116.9C96.3,115.9 96.8,115 97.6,114C97.9,113.9 98.1,114 98,114.4C97.3,115.5 96.7,116.3 96.1,117C96.1,117 96,117 95.9,116.9z" />
<path fill="#27B9E0" d="M540,113.7C539.4,113.5 538.8,113 538.2,112.1C538.8,112.3 539.4,112.8 540,113.7z" />
<path fill="#0495D5" d="M484.2,520.8C484.2,520.4 484.4,519.7 484.9,519.1C485,519.7 484.7,520.2 484.2,520.8z" />
<path fill="#0495D5" d="M278.1,562.6C277.5,562.4 276.9,561.9 276.3,561C277,561.2 277.5,561.8 278.1,562.6z" />
<path fill="#0467B1" d="M89.1,177.2C88.3,177.8 87.5,178.4 86.4,179C86,179 86,178.9 86.1,178.7C87.2,177.9 88.1,177.4 89,177C89,177 89.1,177.2 89.1,177.2z" />
<path fill="#0467B1" d="M92.1,175.1C91.3,175.8 90.5,176.4 89.4,177.1C89.1,177.2 89,177 89.2,176.7C90.2,175.9 91.1,175.4 92,175C92,175 92.1,175.1 92.1,175.1z" />
<path fill="#0467B1" d="M95.1,173.1C94.3,173.8 93.5,174.4 92.4,175.1C92.1,175.1 92,175 92.1,174.7C93.2,173.9 94.1,173.4 95,173C95,173 95.1,173.1 95.1,173.1z" />
<path fill="#1DB5E1" d="M488.8,103.5C489.3,103.7 489.8,104.2 490.1,104.9C489.5,104.7 489.2,104.2 488.8,103.5z" />
<path fill="#0495D5" d="M490.4,512C490.6,511.2 491.1,510.2 491.9,509.2C491.7,510 491.2,510.9 490.4,512z" />
<path fill="#1DB5E1" d="M484.2,98.2C484.1,98 484.6,98 484.8,98C485.3,98.5 485.6,99 485.9,99.8C485.4,99.6 484.9,99 484.2,98.2z" />
<path fill="#04A3DC" d="M468,81.3C468.5,81.5 469.2,82 469.9,82.8C469.3,82.6 468.7,82.1 468,81.3z" />
<path fill="#016EB4" d="M177,468C176.5,467.7 176,467.5 175.3,466.9C175,466.3 175,466.2 175.1,465.8C175.3,465.6 175.5,465.2 175.5,465.2C175.9,465.6 176.4,465.9 176.9,466.8C177,467.6 177,467.8 177,468z" />
<path fill="#0D5BAA" d="M268,43.3C268.2,42.8 268.5,42.1 269.2,41.6C269.1,42.2 268.7,42.7 268,43.3z" />
<path fill="#0486CB" d="M487,438.1C486.7,437.7 486.4,437.4 486,436.8C486.4,436.4 486.8,436.1 487.5,435.9C487.8,435.8 487.9,435.9 487.9,436.3C487.5,437.1 487.2,437.6 487,438.1z" />
<path fill="#0467B1" d="M81.9,463.3C82.4,463.6 83,464.2 83.4,465.1C82.8,464.8 82.4,464.2 81.9,463.3z" />
<path fill="#036EB6" d="M345.9,12.6C345.2,12.8 344.4,12.7 343.3,12.4C343.9,12.2 344.9,12.3 345.9,12.6z" />
<path fill="#0D5BAA" d="M273,38.3C273.1,37.8 273.5,37.1 274.2,36.6C274.1,37.2 273.6,37.7 273,38.3z" />
<path fill="#0467B1" d="M103.8,167.6C103.1,168.1 102.4,168.5 101.5,169.1C101.2,169.2 101.1,169.1 101.1,168.7C101.8,167.9 102.4,167.5 103.2,167.2C103.5,167.4 103.7,167.5 103.8,167.6z" />
<path fill="#03AEE1" d="M315,576.7C314.5,576.8 313.9,576.6 313.2,576.1C313.6,576 314.2,576.2 315,576.7z" />
<path fill="#03AEE1" d="M316.7,577C316.9,577.4 316.8,577.8 316.7,578.3C316.5,578.1 316.3,577.9 316,577.4C316,577.2 316.5,577.1 316.7,577z" />
<path fill="#0495D5" d="M240.9,581.8C241.4,581.7 242,581.8 242.6,582.2C242.1,582.4 241.6,582.2 240.9,581.8z" />
<path fill="#0495D5" d="M249.9,585.8C250.4,585.6 251,585.7 251.6,586.1C251.1,586.3 250.6,586.1 249.9,585.8z" />
<path fill="#04A3DC" d="M278,598.3C278.2,598.5 278.4,599.1 278.4,599.8C278.1,599.5 278.1,599.1 278,598.3z" />
<path fill="#0D5BAA" d="M276.3,35C276.3,34.6 276.6,34 277.2,33.7C277.2,34.2 276.9,34.6 276.3,35z" />
<path fill="#0495D5" d="M493.3,507.9C493.2,507.5 493.4,506.9 493.9,506.2C494,506.6 493.7,507.2 493.3,507.9z" />
<path fill="#0495D5" d="M494.4,506C494.3,505.6 494.6,505 495.1,504.4C495.2,504.9 494.9,505.4 494.4,506z" />
<path fill="#0D5BAA" d="M274.9,36.4C275,36 275.2,35.6 275.8,35.1C275.8,35.4 275.5,35.8 274.9,36.4z" />
<path fill="#0D5BAA" d="M278,33.4C278,33.1 278.3,32.6 278.8,32.1C278.9,32.5 278.6,32.8 278,33.4z" />
<path fill="#047EC4" d="M170.6,546.8C170,546.5 169.5,546.2 168.8,545.8C168.5,545.7 168.7,545.3 169.2,545.2C170.1,545.3 170.5,545.7 170.9,546.2C170.7,546.4 170.6,546.8 170.6,546.8z" />
<path fill="#0486CB" d="M442,38.6C441.6,38.7 441,38.7 440.2,38.3C440.6,38.2 441.2,38.2 442,38.6z" />
<path fill="#0495D5" d="M271.4,554.1C271,554.1 270.6,553.8 270.1,553.2C270.5,553.2 270.9,553.5 271.4,554.1z" />
<path fill="#0270B8" d="M181.1,469.6C180.6,469.6 180,469.4 179.5,468.8C180,468.8 180.5,469.1 181.1,469.6z" />
<path fill="#0486CB" d="M444.1,39.5C443.6,39.7 443,39.5 442.2,39.1C442.7,38.9 443.3,39.1 444.1,39.5z" />
<path fill="#0467B1" d="M200.5,105.3C200.6,105 201.1,104.5 201.8,104.1C201.7,104.5 201.3,104.9 200.5,105.3z" />
<path fill="#27B9E0" d="M595,381.7C594.7,381.5 594.4,381 594.1,380.2C594.4,380.4 594.7,380.9 595,381.7z" />
<path fill="#27B9E0" d="M558.6,367.9C558.5,368.2 558,368.6 557.2,368.9C557.4,368.6 557.8,368.2 558.6,367.9z" />
<path fill="#0D5BAA" d="M266.3,45.1C266.3,44.6 266.6,44.1 267.2,43.6C267.2,44.2 266.9,44.6 266.3,45.1z" />
<path fill="#0495D5" d="M443,61.4C443.4,61.3 444,61.5 444.7,62.1C444.2,62.2 443.7,61.9 443,61.4z" />
<path fill="#27B9E0" d="M537.3,110.5C536.9,110.4 536.5,109.9 536.1,109.1C536.5,109.3 536.9,109.7 537.3,110.5z" />
<path fill="#1DB5E1" d="M540.4,146.3C540.6,145.8 541,145.5 541.8,145.1C541.7,145.5 541.2,145.9 540.4,146.3z" />
<path fill="#1DB5E1" d="M544.3,143C544.2,142.6 544.3,142 544.7,141.2C544.9,141.6 544.7,142.2 544.3,143z" />
<path fill="#1DB5E1" d="M518.1,145.3C518.5,145.2 519.1,145.4 519.8,145.9C519.4,146 518.8,145.8 518.1,145.3z" />
<path fill="#12AEE1" d="M127.3,406.6C126.8,406.4 126.5,405.9 126.1,405.1C126.5,405.3 126.9,405.8 127.3,406.6z" />
<path fill="#27B9E0" d="M594.1,379.7C593.8,379.5 593.4,379 593.1,378.2C593.4,378.4 593.7,378.9 594.1,379.7z" />
<path fill="#0486CB" d="M446,40.7C445.5,40.7 444.9,40.5 444.2,40C444.7,39.9 445.3,40.1 446,40.7z" />
<path fill="#0486CB" d="M448.3,41.6C447.8,41.7 447.1,41.6 446.2,41.2C446.7,41 447.4,41.2 448.3,41.6z" />
<path fill="#0467B1" d="M107.1,165.1C106.7,165.4 106.2,165.7 105.4,166C105,166 105,165.9 105.1,165.7C105.9,165.3 106.4,165.1 107,165C107,165 107.1,165.1 107.1,165.1z" />
<path fill="#0467B1" d="M110.2,163.2C109.7,163.4 109.2,163.7 108.4,164C108,164 108,164 108.1,163.7C108.9,163.3 109.4,163.1 110,163C110.1,163.1 110.2,163.2 110.2,163.2z" />
<path fill="#0495D5" d="M445,443.3C445.1,443.6 445.1,444.1 444.8,444.6C444.6,444.2 444.8,443.9 445,443.3z" />
<path fill="#0467B1" d="M105.1,166.1C104.8,166.5 104.5,166.9 104,167.5C103.7,167.5 103.5,167.4 103.3,166.9C103.9,166.3 104.4,166.1 105,165.9C105,165.9 105,166 105.1,166.1z" />
<path fill="#27B9E0" d="M555.6,369.8C555.4,370.2 555,370.6 554.2,370.9C554.3,370.6 554.8,370.2 555.6,369.8z" />
<path fill="#1DB5E1" d="M108.9,88.4C109.2,88.5 109.6,89 109.9,89.8C109.6,89.6 109.3,89.2 108.9,88.4z" />
<path fill="#0467B1" d="M86.1,179.1C85.7,179.5 85.4,179.9 84.6,180.2C84.2,180.2 84,180 84.2,179.7C84.9,179.3 85.4,179.1 86,178.9C86,178.9 86,179 86.1,179.1z" />
<path fill="#27B9E0" d="M245.3,89.9C245.2,89.5 245.4,88.9 245.9,88.2C245.9,88.6 245.8,89.2 245.3,89.9z" />
<path fill="#0467B1" d="M113.1,161.1C112.7,161.5 112.2,161.7 111.4,162C111,162 111,162 111.1,161.7C111.9,161.3 112.4,161.1 113,160.9C113,160.9 113.1,161.1 113.1,161.1z" />
<path fill="#047EC4" d="M171.9,547.1C171.5,547.2 171.2,547.1 170.7,546.9C170.6,546.8 170.7,546.4 171.1,546.3C171.7,546.4 171.9,546.6 172,546.9C172,546.9 171.9,547.1 171.9,547.1z" />
<path fill="#0467B1" d="M117.4,158.5C117.3,158.9 117,159.1 116.4,159.2C116.2,159.2 116.1,159.1 116.1,158.8C116.4,158.3 116.7,158.1 117,158C117,158 117.3,158.3 117.4,158.5z" />
<path fill="#0467B1" d="M108.1,164.1C107.9,164.4 107.8,164.7 107.4,165.1C107.1,165.1 107,165 107.1,164.8C107.4,164.3 107.7,164.1 108,164C108,164 108,164 108.1,164.1z" />
<path fill="#03AEE1" d="M340,545.3C340.2,545.2 340.5,545.4 340.8,545.9C340.6,545.9 340.3,545.8 340,545.3z" />
<path fill="#0467B1" d="M69.9,160.9C69.8,160.5 69.9,160.2 70.2,159.7C70.3,159.5 70.7,159.7 70.7,160.1C70.6,160.7 70.4,160.9 70.1,161C70.1,161 69.9,160.9 69.9,160.9z" />
<path fill="#0467B1" d="M111.1,162.1C110.9,162.4 110.8,162.7 110.4,163.1C110.2,163.2 110.1,163.1 110.1,162.8C110.4,162.3 110.7,162.1 111,162C111,162 111,162 111.1,162.1z" />
<path fill="#04A3DC" d="M18.6,350.7C18.6,350.9 18.4,351.1 18.1,351.2C18,351 18.4,350.8 18.6,350.7z" />
<path fill="#1DB5E1" d="M500.1,74.6C499.9,74.7 499.6,74.5 499.2,74.1C499.4,74 499.7,74.2 500.1,74.6z" />
<path fill="#1DB5E1" d="M501.4,75.6C501.2,75.7 500.8,75.6 500.2,75.1C500.5,75 500.9,75.2 501.4,75.6z" />
<path fill="#04A3DC" d="M463.9,77.4C464.1,77.3 464.4,77.5 464.8,78C464.6,78.1 464.3,77.9 463.9,77.4z" />
<path fill="#04A3DC" d="M465.9,79.3C466.1,79.3 466.4,79.5 466.8,79.9C466.6,80 466.3,79.8 465.9,79.3z" />
<path fill="#12AEE1" d="M487.8,65C487.7,65.1 487.4,65.1 487.1,64.8C487.3,64.7 487.4,64.8 487.8,65z" />
<path fill="#0495D5" d="M445.9,63.3C446.1,63.2 446.4,63.4 446.9,63.8C446.7,63.9 446.3,63.7 445.9,63.3z" />
<path fill="#12AEE1" d="M481.8,95.4C482,95.3 482.4,95.5 482.8,95.9C482.6,96 482.3,95.8 481.8,95.4z" />
<path fill="#1DB5E1" d="M486,100.3C486.2,100.3 486.5,100.5 486.8,101C486.6,101 486.4,100.8 486,100.3z" />
<path fill="#0467B1" d="M205.4,102.2C205.4,102 205.6,101.8 205.9,101.8C206,101.9 205.6,102.2 205.4,102.2z" />
<path fill="#1DB5E1" d="M487.8,102.4C488,102.3 488.4,102.5 488.8,102.9C488.6,103 488.3,102.8 487.8,102.4z" />
<path fill="#0495D5" d="M444.8,62.5C445,62.4 445.4,62.5 445.8,62.9C445.6,63.1 445.2,62.9 444.8,62.5z" />
<path fill="#27B9E0" d="M530.1,103.3C530.1,103 530.3,103 530.8,103C531.1,103 531.4,103.3 531.4,103.5C531,103.6 530.7,103.5 530.1,103.3z" />
<path fill="#27B9E0" d="M532.2,104.5C531.9,104.7 531.6,104.5 531.2,104.1C531.5,103.9 531.8,104.1 532.2,104.5z" />
<path fill="#27B9E0" d="M538.2,111.6C537.9,111.7 537.6,111.5 537.2,111.1C537.5,110.9 537.8,111.1 538.2,111.6z" />
<path fill="#0467B1" d="M97.9,113.9C97.8,113.5 97.9,113.2 98.2,112.7C98.4,112.5 98.7,112.7 98.8,113.1C98.6,113.7 98.4,113.9 98.1,114C98.1,114 97.9,113.9 97.9,113.9z" />
<path fill="#1DB5E1" d="M515.9,143.3C516.2,143.2 516.5,143.4 516.9,143.9C516.6,144 516.3,143.8 515.9,143.3z" />
<path fill="#1DB5E1" d="M516.9,144.3C517.2,144.2 517.5,144.4 517.9,144.9C517.6,144.9 517.3,144.8 516.9,144.3z" />
<path fill="#1DB5E1" d="M542.3,145C542.3,144.8 542.5,144.5 543,144.1C543.1,144.4 542.8,144.7 542.3,145z" />
<path fill="#0467B1" d="M134.4,147.5C134.3,147.9 134,148 133.4,148.1C133.2,148.2 133.1,148.1 133.1,147.8C133.4,147.3 133.7,147.1 134,147C134,147 134.3,147.3 134.4,147.5z" />
<path fill="#27B9E0" d="M591.4,407.1C591.3,406.9 591.5,406.5 591.9,406.2C592,406.4 591.8,406.8 591.4,407.1z" />
<path fill="#12AEE1" d="M128.2,407.9C127.9,407.9 127.6,407.7 127.2,407.2C127.4,407.1 127.7,407.3 128.2,407.9z" />
<path fill="#27B9E0" d="M591.1,407.8C590.8,407.8 590.7,407.6 590.5,407.4C590.6,407.3 590.8,407.3 591.1,407.2C591.3,407.2 591.3,407.7 591.1,407.8z" />
<path fill="#27B9E0" d="M579.3,416C579.3,415.8 579.5,415.7 579.9,415.7C580,415.9 579.5,416 579.3,416z" />
<path fill="#0D5BAA" d="M270.9,40.3C270.8,40.1 270.8,39.8 271.2,39.6C271.4,39.9 271.2,40.1 270.9,40.3z" />
<path fill="#0270B8" d="M186.1,473.7C185.9,473.7 185.6,473.5 185.2,473.1C185.4,473 185.7,473.2 186.1,473.7z" />
<path fill="#0486CB" d="M517.9,472.8C517.7,472.8 517.6,472.5 517.5,472.3C517.5,472.3 517.7,472.2 518,472.1C518.2,472.1 518.1,472.6 517.9,472.8z" />
<path fill="#0270B8" d="M182.2,470.5C182,470.6 181.7,470.5 181.2,470.1C181.4,469.9 181.8,470.1 182.2,470.5z" />
<path fill="#0270B8" d="M179.3,468.2C179,468.4 178.7,468.3 178.3,467.9C178.6,467.6 178.9,467.8 179.3,468.2z" />
<path fill="#0270B8" d="M177.3,467.9C177,467.8 177,467.6 177.1,467.1C177.4,466.9 177.7,467 178.2,467.4C178.1,467.7 177.9,467.8 177.3,467.9z" />
<path fill="#016EB4" d="M174.4,464.6C174.7,464.6 175,464.7 175.3,465.1C175.5,465.2 175.3,465.6 174.9,465.7C174.3,465.6 174.1,465.3 174.1,464.9C174.2,464.8 174.4,464.6 174.4,464.6z" />
<path fill="#016EB4" d="M173.2,463.8C173.5,463.9 173.8,464 174.3,464.4C174.4,464.6 174.2,464.8 173.9,464.8C173.3,464.6 173.1,464.4 173,464C173.1,463.9 173.2,463.8 173.2,463.8z" />
<path fill="#016EB4" d="M172.1,462.9C172.4,463.1 172.7,463.2 173.1,463.6C173.2,463.8 173.1,463.9 172.8,463.9C172.3,463.6 172.1,463.4 172,463.1C172,463.1 172,463 172.1,462.9z" />
<path fill="#016EB4" d="M164.1,456.9C164.4,457.1 164.7,457.2 165.1,457.6C165.2,457.8 165.1,457.9 164.8,457.9C164.3,457.6 164.1,457.4 164,457.1C164,457.1 164,457 164.1,456.9z" />
<path fill="#0D5BAA" d="M269.9,41.4C269.8,41.1 269.8,40.8 270.2,40.6C270.3,41 270.2,41.1 269.9,41.4z" />
<path fill="#12AEE1" d="M13.5,355.8C13.6,356.1 13.5,356.4 13.1,356.8C13,356.6 13.1,356.2 13.5,355.8z" />
<path fill="#1DB5E1" d="M134.4,530.1C134.2,529.8 134.4,529.5 134.9,529.2C135,529.4 134.8,529.7 134.4,530.1z" />
<path fill="#0D5BAA" d="M280.3,31.1C280.3,30.9 280.5,30.6 281,30.2C281,30.4 280.8,30.7 280.3,31.1z" />
<path fill="#0467B1" d="M97.3,171.6C97.2,172.1 97.1,172.2 96.5,172.3C96.2,172.2 96,172 96.1,171.8C96.4,171.3 96.7,171.1 97,171C97,171 97.2,171.4 97.3,171.6z" />
<path fill="#0467B1" d="M96.3,172.4C96.2,172.7 95.9,172.9 95.4,173.1C95.1,173.1 95,173 95.1,172.8C95.4,172.3 95.7,172.1 96,172C96,172 96.2,172.2 96.3,172.4z" />
<path fill="#0467B1" d="M84.3,180.4C84.2,180.7 83.9,180.9 83.4,181.1C83.2,181.2 83.1,181 83.1,180.8C83.4,180.3 83.7,180.1 84,180C84,180 84.2,180.2 84.3,180.4z" />
<path fill="#0D5BAA" d="M260.9,50.8C260.6,50.7 260.6,50.5 260.5,50.3C260.5,50.3 260.7,50.2 261,50.2C261.2,50.2 261.1,50.6 260.9,50.8z" />
<path fill="#016EB4" d="M168.1,459.9C168.4,460 168.7,460.2 169.1,460.6C169.2,460.8 169.1,460.9 168.8,460.9C168.3,460.6 168.1,460.4 168,460.1C168,460.1 168,460 168.1,459.9z" />
<path fill="#12AEE1" d="M13.8,355.1C14.1,355.2 14.3,355.4 14.4,355.6C14.3,355.7 14.1,355.7 13.8,355.7C13.6,355.6 13.7,355.2 13.8,355.1z" />
<path fill="#04A3DC" d="M377.1,511.6C376.9,511.7 376.6,511.5 376.2,511C376.4,510.9 376.7,511.2 377.1,511.6z" />
<path fill="#0D5BAA" d="M261.4,50.1C261.3,49.9 261.5,49.6 261.9,49.2C262,49.4 261.8,49.7 261.4,50.1z" />
<path fill="#27B9E0" d="M556.7,368.9C556.8,369.2 556.6,369.5 556.1,369.8C556,369.6 556.2,369.3 556.7,368.9z" />
<path fill="#12AEE1" d="M13.9,379.3C14.2,379.3 14.5,379.5 14.8,379.9C14.6,380 14.3,379.8 13.9,379.3z" />
<path fill="#0D5BAA" d="M262.3,49.1C262.3,48.9 262.5,48.6 262.9,48.2C263,48.4 262.8,48.7 262.3,49.1z" />
<path fill="#12AEE1" d="M14.9,380.3C15.1,380.3 15.4,380.5 15.8,381C15.6,381.1 15.3,380.9 14.9,380.3z" />
<path fill="#12AEE1" d="M111.3,396.5C111,396.7 110.7,396.6 110.2,396.4C110,396.2 110.5,396.1 110.7,396C111,396 111.3,396.3 111.3,396.5z" />
<path fill="#12AEE1" d="M124.1,402.7C123.8,402.7 123.5,402.5 123.1,402C123.4,402 123.7,402.2 124.1,402.7z" />
<path fill="#12AEE1" d="M125.2,403.7C125,403.7 124.6,403.6 124.2,403.1C124.4,403 124.7,403.2 125.2,403.7z" />
<path fill="#0D5BAA" d="M263.3,48.1C263.3,47.9 263.5,47.6 263.9,47.1C264,47.4 263.8,47.7 263.3,48.1z" />
<path fill="#0D5BAA" d="M271.9,39.3C271.8,39.1 271.8,38.8 272.2,38.6C272.4,38.9 272.2,39.1 271.9,39.3z" />
<path fill="#03AEE1" d="M370.7,553.3C365.1,556.9 358.8,556.5 352.2,554.5C353.7,554.1 355.5,554.1 357.3,554C361.6,553.7 366,553.4 370.7,553.3z" />
<path fill="#04A3DC" d="M276.1,583.1C276.9,583 277.6,583.2 278.7,583.6C278,583.6 277.1,583.5 276.1,583.1z" />
<path fill="#03AEE1" d="M373.7,552C373.4,552.5 372.8,552.9 371.8,553.5C372.1,553 372.8,552.5 373.7,552z" />
<path fill="#0495D5" d="M470.2,520.9C470.3,520.3 470.7,519.7 471.3,518.9C471.6,518.9 471.7,519.1 471.9,519.7C471.5,520.3 471,520.6 470.2,520.9z" />
<path fill="#03AEE1" d="M376.9,550.1C376.9,550.3 376.7,550.6 376.3,550.9C376.1,550.6 376.3,550.4 376.9,550.1z" />
<path fill="#03AEE1" d="M379,548.2C379,548.4 378.8,548.7 378.3,549.1C378.3,548.9 378.5,548.6 379,548.2z" />
<path fill="#03AEE1" d="M326,584.1C326.2,584.1 326.1,584.5 326,584.8C325.8,584.8 325.6,584.6 325.5,584.4C325.5,584.4 325.7,584.2 326,584.1z" />
<path fill="#0467B1" d="M74.9,184.1C72.3,182.7 69.7,181.3 66.8,179.7C66.5,179.6 66.8,179.3 67.3,179.1C70.2,180.6 72.6,182.3 75.1,183.9C75.1,183.9 75,184 74.9,184.1z" />
<path fill="#0D5BAA" d="M98.8,398.8C86.3,357.6 74,316.3 61.7,274.9C59.3,266.9 56.9,258.9 53.7,250.9C51,263.5 48.4,276.1 45.4,288.9C46.5,281 47.8,272.9 49.2,264.7C50.2,259.7 51.3,254.8 52.7,248.3C54.5,250.3 56.3,251.5 56.8,253.1C66.7,286.4 76.3,319.8 86.2,353.1C90.6,367.9 95.3,382.6 100,397.6C99.6,398.2 99.3,398.5 98.8,398.8z" />
<path fill="#0D5BAA" d="M39.7,314.2C38.2,323.6 36.5,333.2 34.4,343C35.8,333.6 37.6,324 39.7,314.2z" />
<path fill="#0D5BAA" d="M42.8,298.3C43,299.7 42.8,301.3 42.3,303C42.2,301.6 42.4,300 42.8,298.3z" />
<path fill="#0D5BAA" d="M41.7,304.2C41.9,305.3 41.7,306.6 41.3,308C41.2,306.9 41.3,305.7 41.7,304.2z" />
<path fill="#0D5BAA" d="M40.7,309.2C40.8,310.3 40.7,311.6 40.3,313C40.2,311.9 40.3,310.7 40.7,309.2z" />
<path fill="#0D5BAA" d="M44.8,289.2C45,290.6 44.9,292.2 44.4,293.9C44.2,292.6 44.4,291 44.8,289.2z" />
<path fill="#0D5BAA" d="M43.8,294.2C44,295.3 43.9,296.5 43.4,297.9C43.2,296.9 43.4,295.7 43.8,294.2z" />
<path fill="#04A3DC" d="M33,347.1C33.3,347.1 33.6,347.3 33.9,347.7C33.8,348 33.6,348 33.1,347.9C32.8,347.8 32.9,347.4 33,347.1z" />
<path fill="#047EC4" d="M181,496.2C184.3,495.8 187.7,495.4 191.5,494.9C191.9,494.9 192,495 191.8,495.3C189.6,496.3 187.6,497 186.5,497.3C184.3,501.1 182.5,504.2 180.2,507.9C188.1,506.9 195.6,506 203.1,505C203.1,505.5 203,505.9 203,506.7C195.8,507.8 188.7,508.4 181.6,509.4C170.3,510.9 159.1,512.7 147.5,514.5C147,512.3 147.1,510.1 147.4,507.1C147.9,503.3 149.4,502.2 152.7,501.9C160,501.1 167.3,499.6 174.5,498.3C176.7,497.8 178.8,496.9 181,496.2z" />
<path fill="#0486CB" d="M203.4,504.7C195.6,506 188.1,506.9 180.2,507.9C182.5,504.2 184.3,501.1 186.5,497.3C187.6,497 189.6,496.3 191.8,495.3C192.5,493.6 192.9,492.1 193.3,490.6C192.9,490.4 192.5,490.3 192.1,490.1C194.1,488.5 196.1,486.9 198.9,484.7C201,486.5 203.2,488.5 205.7,490.8C205.2,495.4 204.4,499.9 203.4,504.7z" />
<path fill="#0486CB" d="M203.4,508.8C203.2,508.5 203.1,508.1 202.9,507.3C203.1,507.5 203.4,508.1 203.4,508.8z" />
<path fill="#0D5BAA" d="M254.9,35.8C249.5,37.2 244,38.4 238.5,39.5C236.6,39.8 234.6,39.8 232.4,39.9C239.1,38.2 246.3,36.5 253.4,34.8C253.8,34.7 254.4,35.2 254.9,35.8z" />
<path fill="#0D5BAA" d="M218.7,44C215.4,45.4 211.6,46.8 207.5,48.2C210.8,46.8 214.6,45.4 218.7,44z" />
<path fill="#0D5BAA" d="M206.8,48.1C203.5,49.5 199.9,50.9 195.9,52.4C199.1,51.1 202.7,49.6 206.8,48.1z" />
<path fill="#0D5BAA" d="M194.9,52.4C193.7,53.1 192.2,53.6 190.4,54.1C191.5,53.5 193,52.8 194.9,52.4z" />
<path fill="#0D5BAA" d="M189.7,54.1C188.7,54.8 187.3,55.5 185.6,56.4C186.6,55.6 188,54.8 189.7,54.1z" />
<path fill="#0D5BAA" d="M185,56.3C184.8,56.6 184.2,56.9 183.4,57.2C183.6,56.9 184.1,56.5 185,56.3z" />
<path fill="#0467B1" d="M121,99C120.8,100 120.3,100.9 119.5,101.7C118.1,100 117,98.5 116,97C116.1,96.9 116.1,96.9 116.1,96.9C117.6,97.6 119.1,98.2 121,99z" />
<path fill="#0467B1" d="M115,96C115.4,96 115.7,96.2 116,96.7C116.1,96.9 116.1,96.9 115.8,96.9C115.3,96.6 115.1,96.3 115,96C115,96 115,96 115,96z" />
<path fill="#0495D5" d="M487,438.4C487.2,437.6 487.5,437.1 487.9,436.3C494.5,433.3 500.9,430.5 507.6,427.6C508.9,429.5 510.5,431.7 512.2,434.2C511.8,434.7 511,435.6 510.2,436.8C510.2,437.2 510.2,437.2 509.9,437.1C509,437.5 508.6,437.9 508.1,438.3C508.1,438.3 508.1,438.1 507.8,438.1C507.1,438.5 506.6,438.9 506.1,439.3C506.1,439.3 506.1,439.2 505.8,439.1C505.1,439.5 504.6,439.9 504.1,440.3C504.1,440.3 504.1,440.2 503.8,440.1C502.3,440.8 501.2,441.4 500,442.1C500,442.1 500,442 499.7,442.1C499,442.4 498.5,442.8 498,443.1C498,443.1 498,443 497.7,443.1C497.1,443.6 496.8,444 496.5,444.5C496.5,444.5 496.4,444.5 496,444.4C494.8,444.9 493.9,445.5 493.1,446.2C493.1,446.2 493,446.1 492.7,446.1C491.6,446 490.8,446 490,446C489,443.6 488,441.2 487,438.4z" />
<path fill="#0486CB" d="M490,446.3C490.8,446 491.6,446 492.7,446.1C492.3,446.7 491.5,447.3 490.3,447.9C490,447.6 490,447.1 490,446.3z" />
<path fill="#0270B8" d="M180.6,496.2C178.8,496.9 176.7,497.8 174.5,498.3C167.3,499.6 160,501.1 152.7,501.9C149.4,502.2 147.9,503.3 147.4,506.7C146.5,505.2 145.9,503.5 145.2,501.4C156.8,499.4 168.5,497.8 180.6,496.2z" />
<path fill="#1DB5E1" d="M114.1,490.6C120.1,487.6 126.3,486.8 132.9,489.6C126.8,490.2 120.5,490.6 114.1,490.6z" />
<path fill="#1DB5E1" d="M133.2,490.2C133.9,490.1 134.7,490.3 135.8,490.7C135.2,490.8 134.3,490.6 133.2,490.2z" />
<path fill="#1DB5E1" d="M137.1,492C137.1,491.8 137.6,491.8 137.8,492C137.7,492.1 137.4,492.1 137.1,492z" />
<path fill="#1DB5E1" d="M136.1,491.2C136.3,491.1 136.7,491.2 137.1,491.7C136.8,491.8 136.5,491.6 136.1,491.2z" />
<path fill="#28A9DC" d="M117.7,438.1C111.1,442.6 104.2,441.4 97.1,437.4C99.6,437.7 102.2,438.8 105,438.9C109,438.9 113.2,438.3 117.7,438.1z" />
<path fill="#28A9DC" d="M90.9,430.8C89.6,428.4 88.3,425.6 87.1,422.4C88.4,424.8 89.7,427.6 90.9,430.8z" />
<path fill="#28A9DC" d="M96.9,436.8C96.2,436.8 95.6,436.3 94.8,435.7C95.4,435.7 96.2,436.1 96.9,436.8z" />
<path fill="#28A9DC" d="M92.7,433C92.4,433.1 92.1,432.9 91.8,432.5C92,432.4 92.4,432.5 92.7,433z" />
<path fill="#28A9DC" d="M91.8,432C91.5,432.1 91.2,431.9 90.9,431.4C91.1,431.3 91.4,431.5 91.8,432z" />
<path fill="#28A9DC" d="M93.7,434C93.4,434.1 93.1,434 92.7,433.6C93,433.4 93.4,433.6 93.7,434z" />
<path fill="#28A9DC" d="M94.7,435C94.4,435.1 94.1,435 93.7,434.6C94,434.4 94.4,434.6 94.7,435z" />
<path fill="#28A9DC" d="M119,437.7C118.9,438 118.7,438 118.3,438.1C118.3,437.9 118.4,437.6 118.9,437.1C119.1,437.1 119,437.5 119,437.7z" />
<path fill="#0467B1" d="M64.1,412.2C65.8,414.3 67.4,416.7 69.1,419.6C65,419.1 65.1,415.5 64.1,412.2z" />
<path fill="#0467B1" d="M81.2,440.2C82.4,441.6 83.7,443.5 85,445.6C83.8,444.2 82.4,442.3 81.2,440.2z" />
<path fill="#0467B1" d="M75.1,430.2C76.1,431.3 77.1,432.7 78.2,434.5C77.2,433.4 76.1,432 75.1,430.2z" />
<path fill="#0467B1" d="M86.1,448.2C86.8,448.6 87.4,449.4 88,450.5C87.4,450.1 86.7,449.3 86.1,448.2z" />
<path fill="#0467B1" d="M69.1,420.3C69.8,420.9 70.5,421.9 71.4,423.2C70.7,422.6 69.9,421.6 69.1,420.3z" />
<path fill="#0467B1" d="M73.2,427.1C73.9,427.6 74.5,428.4 75.1,429.6C74.5,429.1 73.8,428.3 73.2,427.1z" />
<path fill="#0467B1" d="M61.2,407.1C61.8,407.6 62.4,408.5 63.1,409.6C62.5,409.1 61.8,408.3 61.2,407.1z" />
<path fill="#0467B1" d="M72.1,425.2C72.5,425.3 72.8,425.8 73.3,426.5C72.9,426.4 72.5,426 72.1,425.2z" />
<path fill="#0467B1" d="M60.1,405.2C60.5,405.3 60.8,405.8 61.3,406.5C60.9,406.4 60.5,406 60.1,405.2z" />
<path fill="#0467B1" d="M63.1,410.2C63.4,410.4 63.8,410.8 64.2,411.6C63.9,411.4 63.5,411 63.1,410.2z" />
<path fill="#0467B1" d="M85.1,446.3C85.4,446.4 85.7,446.9 86.1,447.6C85.8,447.5 85.5,447 85.1,446.3z" />
<path fill="#0467B1" d="M80.1,438.2C80.4,438.4 80.8,438.8 81.2,439.6C80.9,439.4 80.5,439 80.1,438.2z" />
<path fill="#0467B1" d="M78.1,435.1C78.5,435.3 78.8,435.8 79.1,436.6C78.8,436.5 78.5,436 78.1,435.1z" />
<path fill="#0467B1" d="M71.4,423.9C71.7,423.9 71.9,424.2 72.1,424.7C71.9,424.7 71.6,424.4 71.4,423.9z" />
<path fill="#0467B1" d="M79.2,437.1C79.4,437.1 79.7,437.2 80,437.7C79.8,437.8 79.5,437.6 79.2,437.1z" />
<path fill="#04A3DC" d="M47.1,360.3C49.8,364.4 49.3,369 47.4,373.9C47.1,369.7 47,365.3 47.1,360.3z" />
<path fill="#04A3DC" d="M34.1,348.4C36.3,349.1 38.5,350.2 41,351.6C38.8,350.8 36.5,349.8 34.1,348.4z" />
<path fill="#04A3DC" d="M45.8,377.1C45.8,377.6 45.6,378.1 45.1,378.8C44.9,379 44.5,379.1 44.3,379.1C44.6,378.5 45,377.8 45.8,377.1z" />
<path fill="#04A3DC" d="M46.8,374.2C47,374.9 46.8,375.8 46.3,376.9C46.2,376.2 46.4,375.3 46.8,374.2z" />
<path fill="#04A3DC" d="M43.1,354.2C43.7,354.3 44.3,354.9 45,355.7C44.4,355.5 43.8,355 43.1,354.2z" />
<path fill="#04A3DC" d="M45.1,356.2C45.4,356.4 45.7,356.9 46.1,357.7C45.8,357.5 45.5,357 45.1,356.2z" />
<path fill="#04A3DC" d="M46.1,358.2C46.4,358.3 46.8,358.8 47.1,359.6C46.8,359.5 46.4,359 46.1,358.2z" />
<path fill="#04A3DC" d="M41.1,352.1C41.4,352 41.7,352.2 42.1,352.7C41.9,352.8 41.6,352.6 41.1,352.1z" />
<path fill="#04A3DC" d="M42.2,353.1C42.4,353 42.7,353.2 43.1,353.7C42.9,353.7 42.6,353.5 42.2,353.1z" />
<path fill="#32BEE0" d="M516.2,140.8C515.4,140.5 514.8,140 514.1,139.3C514.8,139.5 515.7,140.1 516.2,140.8z" />
<path fill="#0495D5" d="M432.8,484.2C432.9,484.4 432.8,484.8 432.4,485.3C432.3,485.1 432.4,484.7 432.8,484.2z" />
<path fill="#036EB6" d="M114.6,96C115.1,96.3 115.3,96.6 115.8,96.9C117,98.5 118.1,100 119.2,101.8C119.2,102.2 119.2,102.1 118.9,102.2C118.1,103.2 117.6,104.2 117.1,105.2C117.1,105.2 117.1,105 116.8,105.1C116,106.2 115.6,107.2 115.2,108.2C115.2,108.2 115.1,108.1 114.8,108.2C114.1,109.3 113.7,110.2 113.2,111.2C113.2,111.2 113.2,111.1 112.9,111.2C111.1,113.9 109.6,116.6 108.2,119.2C108.2,119.2 108.1,119.1 107.8,119.1C105.7,122.5 103.9,125.8 102.1,129.1C102.1,129.1 102,129 101.7,129.1C101,130.2 100.6,131.2 100.2,132.2C100.2,132.2 100.2,132.1 99.9,132.2C98.5,134.6 97.3,136.9 96.2,139.2C96.2,139.2 96.2,139.1 95.9,139.2C95.2,140.3 94.9,141.3 94.5,142.3C94.5,142.3 94.4,142.3 94.1,142.4C93.2,143.7 92.7,144.9 92.2,146.2C92.2,146.2 92.2,146.1 91.9,146.2C91.5,146.9 91.3,147.5 91.1,148.1C91.1,148.1 91,148 90.8,148.2C90,149.2 89.6,150.2 89.1,151.1C89.1,151.1 89.1,151 88.8,151.2C88.4,151.9 88.3,152.5 88.1,153.1C88.1,153.1 88,153 87.7,153.2C87,154.6 86.5,155.8 86.1,157.1C86.1,157.1 86.1,157 85.8,157.2C85.4,157.9 85.3,158.5 85.1,159.1C85.1,159.1 85.1,159 84.8,159.2C84.4,159.9 84.3,160.5 84.1,161.1C84.1,161.1 84,161 83.8,161.2C83.4,161.9 83.3,162.5 83.1,163.1C83.1,163.1 83,163 82.8,163.2C82.4,163.9 82.2,164.5 82.1,165.1C82.1,165.1 82,165 81.9,165.1C81.9,165.4 82,165.7 82.1,165.9C82.1,165.9 82,166 82.1,166.3C84.9,168.6 85.6,166.5 86.4,164.4C86.4,164.4 86.5,164.4 86.8,164.5C87.4,164.3 87.6,164 87.9,163.7C87.9,163.7 87.9,163.8 88.2,163.9C89.3,163.2 90.1,162.5 90.9,161.8C90.9,161.8 90.9,161.9 91.2,161.9C92.3,161.2 93.1,160.5 93.9,159.8C93.9,159.8 93.9,159.9 94.3,159.9C97,158.2 99.5,156.5 101.9,154.8C101.9,154.8 101.9,154.9 102.2,154.9C103.3,154.2 104.1,153.5 104.9,152.8C104.9,152.8 105,152.9 105.2,152.9C105.9,152.4 106.2,152 106.6,151.5C106.6,151.5 106.7,151.5 107,151.6C107.4,151.4 107.7,151.1 107.9,150.8C107.9,150.8 107.9,150.9 108.2,150.9C108.9,150.4 109.3,150 109.7,149.5C109.7,149.5 109.8,149.6 110,149.7C110.4,149.4 110.7,149.1 110.9,148.9C110.9,148.9 111,149 111.3,148.9C112,148.5 112.4,148.1 112.8,147.7C112.8,147.7 112.9,147.8 113.1,147.8C113.5,147.4 113.7,147.2 113.9,146.9C113.9,146.9 114,147 114.3,147C116,145.9 117.4,144.8 118.8,143.7C118.8,143.7 118.9,143.8 119.2,143.9C120.3,143.2 121.1,142.5 121.9,141.8C121.9,141.8 121.9,141.9 122.3,141.9C123.4,141.2 124.1,140.5 124.9,139.8C124.9,139.8 125,139.9 125.3,139.9C126.4,139.3 127.1,138.6 127.9,137.9C127.9,137.9 128,138 128.3,138C129.5,137.1 130.4,136.3 131.3,135.5C131.3,135.5 131.3,135.5 131.3,135.4C134.9,137.3 138.3,139.3 137.1,144.7C136.1,145.4 135.2,145.9 134.1,146.7C133.7,147.1 133.4,147.3 133.1,147.7C131.8,148.4 130.6,148.9 129.2,149.7C128.3,150.4 127.7,150.9 127,151.6C125.7,152.4 124.5,152.9 123.1,153.7C121.1,155.1 119.2,156.3 117.1,157.7C116.7,158.1 116.4,158.3 116.1,158.7C115.1,159.4 114.2,159.9 113.1,160.7C112.4,161.1 111.9,161.3 111.1,161.7C110.7,162.1 110.4,162.3 110.1,162.7C109.4,163.1 108.9,163.3 108.1,163.7C107.7,164.1 107.4,164.3 107.1,164.7C106.4,165.1 105.9,165.3 105.1,165.7C104.4,166.1 103.9,166.3 103.2,166.7C102.4,167.5 101.8,167.9 101.1,168.7C99.8,169.4 98.6,170 97.2,170.7C96.7,171.1 96.4,171.3 96.1,171.8C95.7,172.1 95.4,172.3 95.1,172.7C94.1,173.4 93.2,173.9 92.1,174.7C91.1,175.4 90.2,175.9 89.1,176.7C88.1,177.4 87.2,177.9 86.1,178.7C85.4,179.1 84.9,179.3 84.2,179.7C83.7,180.1 83.4,180.3 83.1,180.7C81.3,181.7 79.7,182.5 78,183.6C77.3,184 76.5,184 75.4,184C72.6,182.3 70.2,180.6 67.4,179C65.6,178.2 64.2,177.5 62.5,176.6C63.4,174.6 64.2,172.7 65,170.4C65.7,169.2 66.3,168.4 67,167.3C68,165.3 69,163.5 70,161.4C70.4,160.9 70.6,160.7 70.9,160.2C72,158.3 73,156.5 74,154.4C75.4,152 76.7,149.9 78,147.4C80.4,143.6 82.6,140.2 85,136.4C86,134.6 87,133.1 88,131.4C90.7,126.6 93.4,122.2 96,117.4C96.7,116.3 97.3,115.5 98,114.4C98.4,113.9 98.6,113.7 98.9,113.2C101.7,108.9 104.4,104.9 107,100.4C108.2,99.1 109.2,97.9 110.5,97.1C111.6,96.5 113,96.3 114.6,96z" />
<path fill="#0486CB" d="M512.2,460.9C512.7,459.7 513.5,458.4 514.6,457C514.1,458.2 513.4,459.5 512.2,460.9z" />
<path fill="#0486CB" d="M510.2,463.8C510.3,463 510.8,462.1 511.6,461C511.4,461.8 511,462.8 510.2,463.8z" />
<path fill="#0486CB" d="M509.1,465.1C509.1,464.7 509.3,464.4 509.7,464C509.7,464.3 509.5,464.8 509.1,465.1z" />
<path fill="#0486CB" d="M205.3,550.8C206.8,551.3 208.2,551.9 209.9,552.7C207.8,552.9 206.1,553 205.8,556.1C205.7,557.7 203.7,559.2 202.3,560.8C200.6,560.7 199.1,560.4 197.4,560C192.6,557.6 188.2,555.3 183.4,553C181.9,552.3 180.8,551.6 179.4,551C177,549.6 174.9,548.3 172.4,547C171.9,546.6 171.7,546.4 171.2,546.1C170.5,545.7 170.1,545.3 169.3,545C168.8,542.4 168.2,539.7 168.7,537.2C168.9,535.9 171.1,535 172.8,533.8C173.2,533.7 173.2,533.7 173.3,534C174,534.5 174.6,534.7 175.2,534.8C175.2,534.8 175.1,534.9 175.2,535.2C176.6,536 177.8,536.4 179.1,536.9C179.1,536.9 179,537 179.2,537.3C181.6,538.7 183.8,539.8 186.1,540.9C186.1,540.9 186,541 186.2,541.2C187,541.6 187.6,541.7 188.2,541.8C188.2,541.8 188.1,541.8 188.2,542.1C189,542.5 189.6,542.6 190.2,542.8C190.2,542.8 190.1,542.8 190.2,543.1C191,543.5 191.6,543.7 192.2,543.8C192.2,543.8 192.1,543.9 192.1,544C192.4,544.1 192.7,544.1 193,544.1C197,546.1 200.9,548.1 204.8,550.5C204.3,551.3 203.9,551.8 203.5,552.2C203.8,552.4 204,552.6 204.3,552.7C204.6,552.1 205,551.4 205.3,550.8z" />
<path fill="#0486CB" d="M222.2,559.2C223.3,559.3 224.6,559.8 226,560.6C224.9,560.4 223.6,560 222.2,559.2z" />
<path fill="#0486CB" d="M210.1,553.3C211,553.3 211.9,553.7 213.1,554.3C212.2,554.2 211.2,554 210.1,553.3z" />
<path fill="#0486CB" d="M215.5,555.8C216.3,555.8 217,556.1 218,556.6C217.2,556.7 216.3,556.4 215.5,555.8z" />
<path fill="#0486CB" d="M232.1,564.1C232.5,563.9 232.9,564 233.6,564.2C233.4,564.3 232.8,564.3 232.1,564.1z" />
<path fill="#0486CB" d="M218.2,557.1C218.6,557 219.2,557.2 220,557.6C219.6,557.7 218.9,557.6 218.2,557.1z" />
<path fill="#0486CB" d="M230.2,563C230.7,562.9 231.3,563.1 232,563.7C231.5,563.7 230.9,563.5 230.2,563z" />
<path fill="#0486CB" d="M213.4,554.8C213.9,554.7 214.4,554.8 215.1,555.2C214.6,555.3 214,555.3 213.4,554.8z" />
<path fill="#0486CB" d="M220.2,558.1C220.6,558 221.2,558.2 222,558.6C221.5,558.7 220.9,558.6 220.2,558.1z" />
<path fill="#0486CB" d="M226.2,561.1C226.7,560.9 227.3,561.1 228,561.6C227.6,561.7 227,561.5 226.2,561.1z" />
<path fill="#0486CB" d="M228.2,562C228.7,561.9 229.3,562.1 230.1,562.5C229.6,562.6 229,562.5 228.2,562z" />
<path fill="#0270B8" d="M167.6,460C168.1,460.4 168.3,460.6 168.8,460.9C169.7,461.7 170.5,462.3 171.6,463C172.1,463.4 172.3,463.6 172.7,463.9C173.1,464.4 173.3,464.6 173.8,464.9C174.1,465.3 174.3,465.6 174.8,465.9C175,466.2 175,466.3 175,466.8C175.2,470.5 175.4,474 174.9,477.7C173.4,478 172.7,478 171.9,478.1C171.9,478.1 172,478 171.9,477.8C171.4,477.5 171.1,477.3 170.8,477.1C170.8,477.1 170.9,477.1 170.8,476.9C170.3,476.5 170,476.4 169.6,476.3C169.6,476.3 169.8,476.3 169.7,476C168.7,475.2 167.8,474.7 166.8,474.1C166.8,474.1 167,474.1 166.9,473.8C165.5,472.7 164.2,471.9 162.8,471.1C162.8,471.1 163,471 162.9,470.7C162.1,470.1 161.3,469.9 160.6,469.6C160.6,469.6 160.6,469.5 160.6,469.2C160.3,468.8 160,468.8 159.6,468.8C159.6,468.8 159.4,468.7 159.4,468.3C158.9,467.7 158.4,467.4 157.8,467.2C157.8,467.2 157.9,467.1 157.8,466.9C157.3,466.6 157,466.5 156.6,466.5C156.6,466.5 156.5,466.3 156.6,466.1C155.7,465.2 154.7,464.7 153.8,464.2C153.8,464.2 153.9,464.2 153.8,463.9C153,463.3 152.3,463 151.6,462.7C151.6,462.7 151.4,462.6 151.5,462.3C150.9,461.7 150.4,461.4 149.8,461.2C149.8,461.2 149.8,461.2 149.8,461.2C148.2,456 151.2,453.2 155.6,451.1C157,452 158.1,453 159.6,454C161,455 162.2,456 163.6,457C164.1,457.4 164.3,457.6 164.7,457.9C165.7,458.7 166.5,459.3 167.6,460z" />
<path fill="#0495D5" d="M247.4,570.9C248.9,571.1 250.3,571.7 252,572.5C250.6,572.3 249,571.8 247.4,570.9z" />
<path fill="#0495D5" d="M252.2,573C253.2,573.1 254.3,573.5 255.7,574C254.7,573.9 253.5,573.6 252.2,573z" />
<path fill="#0467B1" d="M182,103.4C182.8,102.5 184,101.7 185.5,100.8C184.7,101.7 183.5,102.7 182,103.4z" />
<path fill="#0467B1" d="M202.2,90.9C203.3,89.9 204.8,88.9 206.5,87.8C205.4,88.8 204,89.9 202.2,90.9z" />
<path fill="#0467B1" d="M194.2,95.9C194.8,95.2 195.8,94.5 197,93.6C196.4,94.3 195.5,95.1 194.2,95.9z" />
<path fill="#0467B1" d="M199.1,92.8C199.6,92.2 200.4,91.6 201.6,90.9C201.1,91.5 200.3,92.2 199.1,92.8z" />
<path fill="#0467B1" d="M191.1,97.8C191.6,97.1 192.4,96.5 193.6,95.9C193.1,96.5 192.3,97.2 191.1,97.8z" />
<path fill="#0467B1" d="M186.1,100.9C186.6,100.2 187.5,99.6 188.6,98.9C188.1,99.5 187.3,100.2 186.1,100.9z" />
<path fill="#0467B1" d="M189.2,98.9C189.3,98.5 189.8,98.2 190.5,97.7C190.4,98.1 190,98.5 189.2,98.9z" />
<path fill="#0467B1" d="M207,87.9C207,87.6 207.2,87.3 207.7,87C207.7,87.3 207.5,87.6 207,87.9z" />
<path fill="#0467B1" d="M197.9,93.4C197.8,93 198,92.8 198.6,92.7C198.6,93 198.4,93.3 197.9,93.4z" />
<path fill="#0495D5" d="M268,568.7C267,568 266,566.9 264.9,565.4C265.9,566.2 266.9,567.3 268,568.7z" />
<path fill="#0495D5" d="M272.9,574.8C272.4,574.6 271.8,574.1 271.1,573.3C271.6,573.5 272.2,574 272.9,574.8z" />
<path fill="#0495D5" d="M264.9,564.8C264.5,564.8 264.1,564.5 263.6,563.9C264,563.9 264.4,564.2 264.9,564.8z" />
<path fill="#0495D5" d="M271,572.7C270.6,572.6 270.2,572.2 269.8,571.4C270.1,571.5 270.5,572 271,572.7z" />
<path fill="#0495D5" d="M269.8,571C269.6,571 269.3,570.8 268.9,570.3C269.1,570.3 269.4,570.5 269.8,571z" />
<path fill="#0495D5" d="M273.8,576C273.6,576 273.3,575.8 273,575.3C273.2,575.3 273.5,575.5 273.8,576z" />
<path fill="#016EB4" d="M172,478.4C172.7,478 173.4,478 174.6,478C175,478.5 175,479 174.9,479.9C173.9,479.7 173.1,479.2 172,478.4z" />
<path fill="#0270B8" d="M181.1,484.9C180.7,484.9 180.4,484.7 180,484.3C180.3,484.3 180.8,484.5 181.1,484.9z" />
<path fill="#016EB4" d="M178.8,483C178.3,483.1 177.7,482.9 177,482.3C177.5,482.3 178.1,482.5 178.8,483z" />
<path fill="#0270B8" d="M179.8,483.9C179.6,484 179.3,483.8 178.8,483.4C179,483.3 179.4,483.5 179.8,483.9z" />
<path fill="#016EB4" d="M175.8,480.9C175.6,481 175.3,480.8 174.9,480.4C175.1,480.3 175.4,480.5 175.8,480.9z" />
<path fill="#0495D5" d="M484.2,500.9C484.7,499.6 485.4,498.4 486.5,496.9C486.1,498.1 485.3,499.5 484.2,500.9z" />
<path fill="#0495D5" d="M481.8,504.4C482.1,503.2 482.7,502.2 483.6,501C483.3,502.1 482.8,503.3 481.8,504.4z" />
<path fill="#0495D5" d="M480.2,506.9C480.1,506.2 480.5,505.6 481,504.8C481,505.4 480.8,506.1 480.2,506.9z" />
<path fill="#0495D5" d="M475.1,513.8C475.3,513 475.9,512.1 476.7,511C476.4,511.8 476,512.8 475.1,513.8z" />
<path fill="#0495D5" d="M478.9,508.6C478.8,508.1 479.1,507.6 479.6,506.9C479.6,507.4 479.4,508 478.9,508.6z" />
<path fill="#0495D5" d="M473.9,515.7C473.8,515.2 474.1,514.7 474.6,514C474.7,514.4 474.5,515 473.9,515.7z" />
<path fill="#0495D5" d="M471.9,518.6C471.8,518.1 472.1,517.6 472.6,517C472.7,517.4 472.4,518 471.9,518.6z" />
<path fill="#0495D5" d="M473.1,516.8C473,516.6 473.1,516.2 473.4,515.8C473.6,516 473.5,516.4 473.1,516.8z" />
<path fill="#0495D5" d="M477.1,510.8C477,510.6 477.2,510.3 477.6,509.8C477.7,510.1 477.5,510.4 477.1,510.8z" />
<path fill="#0495D5" d="M478,509.8C477.8,509.5 478,509.2 478.4,508.7C478.5,509 478.4,509.3 478,509.8z" />
<path fill="#0486CB" d="M500.4,442.1C501.2,441.4 502.3,440.8 503.9,440.1C503.1,440.8 501.9,441.4 500.4,442.1z" />
<path fill="#0486CB" d="M493.4,446.1C493.9,445.5 494.8,444.9 495.9,444.4C495.4,445 494.6,445.6 493.4,446.1z" />
<path fill="#0486CB" d="M504.4,440.2C504.6,439.9 505.1,439.5 505.9,439.2C505.7,439.5 505.2,439.9 504.4,440.2z" />
<path fill="#0486CB" d="M496.7,444.4C496.8,444 497.1,443.6 497.8,443.1C497.7,443.5 497.4,443.9 496.7,444.4z" />
<path fill="#0486CB" d="M498.3,443.1C498.5,442.8 499,442.4 499.8,442.1C499.6,442.4 499.1,442.7 498.3,443.1z" />
<path fill="#0486CB" d="M506.4,439.2C506.6,438.9 507.1,438.5 507.9,438.1C507.7,438.5 507.2,438.8 506.4,439.2z" />
<path fill="#0486CB" d="M508.4,438.2C508.6,437.9 509,437.5 509.9,437.1C509.7,437.5 509.2,437.8 508.4,438.2z" />
<path fill="#047EC4" d="M186,540.6C183.8,539.8 181.6,538.7 179.2,537.2C181.3,538 183.6,539.2 186,540.6z" />
<path fill="#047EC4" d="M178.9,536.6C177.8,536.4 176.6,536 175.2,535.1C176.3,535.3 177.5,535.8 178.9,536.6z" />
<path fill="#047EC4" d="M188.1,541.5C187.6,541.7 187,541.6 186.2,541.2C186.7,541 187.3,541.1 188.1,541.5z" />
<path fill="#047EC4" d="M175,534.6C174.6,534.7 174,534.5 173.2,534C173.7,533.9 174.3,534.1 175,534.6z" />
<path fill="#047EC4" d="M190.1,542.5C189.6,542.6 189,542.5 188.2,542C188.7,541.9 189.3,542.1 190.1,542.5z" />
<path fill="#047EC4" d="M192,543.6C191.6,543.7 191,543.5 190.2,543C190.7,542.9 191.3,543.1 192,543.6z" />
<path fill="#047EC4" d="M192.8,544C192.7,544.1 192.4,544.1 192.1,544C192.1,543.8 192.6,543.9 192.8,544z" />
<path fill="#016EB4" d="M163,471.4C164.2,471.9 165.5,472.7 166.9,473.8C165.6,473.3 164.4,472.5 163,471.4z" />
<path fill="#016EB4" d="M153.9,464.5C154.7,464.7 155.7,465.2 156.6,466.1C155.7,465.9 154.9,465.3 153.9,464.5z" />
<path fill="#016EB4" d="M160.8,469.8C161.3,469.9 162.1,470.1 162.9,470.8C162.2,470.8 161.6,470.4 160.8,469.8z" />
<path fill="#016EB4" d="M167,474.4C167.8,474.7 168.7,475.2 169.7,476.1C168.8,475.9 168,475.3 167,474.4z" />
<path fill="#016EB4" d="M151.8,463C152.3,463 153,463.3 153.8,463.9C153.2,463.9 152.6,463.5 151.8,463z" />
<path fill="#016EB4" d="M149.9,461.4C150.4,461.4 150.9,461.7 151.4,462.2C150.9,462.3 150.4,462 149.9,461.4z" />
<path fill="#016EB4" d="M157.9,467.4C158.4,467.4 158.9,467.7 159.4,468.2C158.8,468.3 158.4,468 157.9,467.4z" />
<path fill="#016EB4" d="M170.9,477.4C171.1,477.3 171.4,477.5 171.8,477.9C171.6,478 171.3,477.8 170.9,477.4z" />
<path fill="#016EB4" d="M169.8,476.6C170,476.4 170.3,476.5 170.8,476.9C170.6,477.1 170.2,476.9 169.8,476.6z" />
<path fill="#016EB4" d="M159.7,468.9C160,468.8 160.3,468.8 160.6,469.2C160.3,469.4 160,469.3 159.7,468.9z" />
<path fill="#016EB4" d="M156.7,466.7C157,466.5 157.3,466.6 157.8,467C157.5,467.1 157.2,467 156.7,466.7z" />
<path fill="#0467B1" d="M102.4,129C103.9,125.8 105.7,122.5 107.9,119.1C106.4,122.4 104.5,125.6 102.4,129z" />
<path fill="#0467B1" d="M101.5,154.8C99.5,156.5 97,158.2 94.2,159.9C96.3,158.2 98.7,156.6 101.5,154.8z" />
<path fill="#0467B1" d="M108.5,119C109.6,116.6 111.1,113.9 112.9,111.2C111.8,113.7 110.3,116.3 108.5,119z" />
<path fill="#0467B1" d="M96.5,139C97.3,136.9 98.5,134.6 99.9,132.2C99.1,134.4 97.9,136.6 96.5,139z" />
<path fill="#0467B1" d="M86.1,164.6C85.6,166.5 84.9,168.6 82.1,166.2C83.3,165.5 84.5,165.1 86.1,164.6z" />
<path fill="#0467B1" d="M118.5,143.8C117.4,144.8 116,145.9 114.3,146.9C115.3,145.9 116.8,144.9 118.5,143.8z" />
<path fill="#0467B1" d="M92.5,146C92.7,144.9 93.2,143.7 94.1,142.4C93.9,143.6 93.3,144.7 92.5,146z" />
<path fill="#0467B1" d="M131,135.6C130.4,136.3 129.5,137.1 128.3,137.9C128.8,137.2 129.8,136.5 131,135.6z" />
<path fill="#0467B1" d="M115.4,108C115.6,107.2 116,106.2 116.8,105.1C116.7,106.1 116.2,107 115.4,108z" />
<path fill="#0467B1" d="M100.5,132.1C100.6,131.2 101,130.2 101.8,129.1C101.7,130 101.2,131 100.5,132.1z" />
<path fill="#0467B1" d="M127.6,137.9C127.1,138.6 126.4,139.3 125.2,139.9C125.7,139.2 126.5,138.6 127.6,137.9z" />
<path fill="#0467B1" d="M124.6,139.9C124.1,140.5 123.4,141.2 122.2,141.9C122.6,141.2 123.5,140.6 124.6,139.9z" />
<path fill="#0467B1" d="M86.4,157C86.5,155.8 87,154.6 87.8,153.2C87.7,154.3 87.2,155.6 86.4,157z" />
<path fill="#0467B1" d="M104.5,152.9C104.1,153.5 103.3,154.2 102.2,154.9C102.6,154.2 103.4,153.6 104.5,152.9z" />
<path fill="#0467B1" d="M89.4,151C89.6,150.2 90,149.2 90.8,148.2C90.7,149 90.2,149.9 89.4,151z" />
<path fill="#0467B1" d="M90.6,161.9C90.1,162.5 89.3,163.2 88.1,163.8C88.6,163.2 89.4,162.6 90.6,161.9z" />
<path fill="#0467B1" d="M93.6,159.9C93.1,160.5 92.3,161.2 91.2,161.9C91.6,161.2 92.5,160.6 93.6,159.9z" />
<path fill="#0467B1" d="M121.6,141.9C121.1,142.5 120.3,143.2 119.1,143.8C119.6,143.2 120.4,142.6 121.6,141.9z" />
<path fill="#0467B1" d="M94.7,142.1C94.9,141.3 95.2,140.3 95.9,139.2C95.8,140 95.4,141 94.7,142.1z" />
<path fill="#0467B1" d="M117.4,105C117.6,104.2 118.1,103.2 118.9,102.2C118.7,103 118.2,104 117.4,105z" />
<path fill="#0467B1" d="M113.5,111.1C113.7,110.2 114.1,109.3 114.9,108.2C114.7,109 114.2,110 113.5,111.1z" />
<path fill="#0467B1" d="M112.5,147.7C112.4,148.1 112,148.5 111.2,148.9C111.3,148.5 111.8,148.2 112.5,147.7z" />
<path fill="#0467B1" d="M88.4,153C88.3,152.5 88.4,151.9 88.9,151.2C89,151.7 88.8,152.3 88.4,153z" />
<path fill="#0467B1" d="M84.4,161C84.3,160.5 84.4,159.9 84.9,159.2C85,159.7 84.8,160.3 84.4,161z" />
<path fill="#0467B1" d="M91.4,148C91.3,147.5 91.5,146.9 92,146.2C92.1,146.7 91.8,147.3 91.4,148z" />
<path fill="#0467B1" d="M83.4,163C83.3,162.5 83.4,161.9 83.9,161.2C84,161.7 83.8,162.3 83.4,163z" />
<path fill="#0467B1" d="M85.4,159C85.3,158.5 85.4,157.9 85.9,157.2C86,157.7 85.8,158.3 85.4,159z" />
<path fill="#0467B1" d="M106.3,151.6C106.2,152 105.9,152.4 105.2,152.9C105.2,152.5 105.6,152.1 106.3,151.6z" />
<path fill="#0467B1" d="M109.4,149.6C109.3,150 108.9,150.4 108.2,150.9C108.3,150.5 108.7,150.1 109.4,149.6z" />
<path fill="#0467B1" d="M82.4,165C82.2,164.5 82.4,163.9 82.9,163.2C83,163.7 82.8,164.3 82.4,165z" />
<path fill="#0467B1" d="M107.6,150.9C107.7,151.1 107.4,151.4 106.9,151.6C106.9,151.3 107.1,151.1 107.6,150.9z" />
<path fill="#0467B1" d="M87.6,163.8C87.6,164 87.4,164.3 86.9,164.5C86.8,164.1 87,163.9 87.6,163.8z" />
<path fill="#0467B1" d="M110.7,148.9C110.7,149.1 110.4,149.4 109.9,149.7C109.9,149.4 110.1,149.2 110.7,148.9z" />
<path fill="#0467B1" d="M113.7,146.9C113.7,147.2 113.5,147.4 113,147.7C112.9,147.5 113.2,147.3 113.7,146.9z" />
<path fill="#0467B1" d="M82.1,165.7C82,165.7 81.9,165.4 81.9,165.1C82.1,165.1 82.1,165.5 82.1,165.7z" />
<path fill="#0495D5" d="M205.3,550.8C205,551.4 204.6,552.1 204.3,552.7C204,552.6 203.8,552.4 203.5,552.2C203.9,551.8 204.3,551.3 204.9,550.8C205.2,550.7 205.2,550.8 205.3,550.8z" />

  </g>
  <g transform="translate(66,12) scale(0.01508)">

        <path fill="#ffffff" transform="translate(0,1038) scale(1,-1)" d="M422 -12Q342 -12 274.0 16.5Q206 45 155.5 97.0Q105 149 77.5 219.5Q50 290 50 373Q50 456 77.5 526.0Q105 596 155.5 648.0Q206 700 274.0 728.5Q342 757 422 757Q501 757 565.0 730.0Q629 703 673.0 658.5Q717 614 736 561L614 504Q593 560 543.0 596.5Q493 633 422 633Q352 633 298.5 600.5Q245 568 215.5 509.0Q186 450 186 373Q186 295 215.5 236.0Q245 177 298.5 144.5Q352 112 422 112Q493 112 543.0 148.0Q593 184 614 241L736 184Q717 131 673.0 86.5Q629 42 565.0 15.0Q501 -12 422 -12Z"/>
        <path fill="#ffffff" transform="translate(774,1038) scale(1,-1)" d="M61 0V757H192V0Z"/>
        <path fill="#ffffff" transform="translate(1026,1038) scale(1,-1)" d="M319 -12Q235 -12 172.0 26.0Q109 64 74.0 128.5Q39 193 39 273Q39 354 74.5 418.0Q110 482 171.0 519.0Q232 556 309 556Q393 556 452.0 519.5Q511 483 542.5 423.0Q574 363 574 290Q574 275 572.5 260.5Q571 246 567 235H175Q181 174 221.0 138.5Q261 103 320 103Q365 103 396.5 122.0Q428 141 446 173L552 121Q527 63 464.5 25.5Q402 -12 319 -12ZM309 448Q260 448 224.5 418.5Q189 389 178 335H434Q430 385 395.5 416.5Q361 448 309 448Z"/>
        <path fill="#ffffff" transform="translate(1638,1038) scale(1,-1)" d="M61 0V544H184V476Q206 516 246.0 536.0Q286 556 336 555Q391 556 435.5 532.0Q480 508 504 468Q532 512 575.5 534.0Q619 556 673 556Q731 556 776.5 529.5Q822 503 848.0 457.0Q874 411 874 350V0H743V319Q743 373 714.5 404.5Q686 436 638 436Q591 436 562.0 404.0Q533 372 533 319V0H402V319Q402 373 373.5 404.5Q345 436 297 436Q249 436 220.5 404.0Q192 372 192 319V0Z"/>
        <path fill="#ffffff" transform="translate(2562,1038) scale(1,-1)" d="M61 605V745H192V605ZM61 0V544H192V0Z"/>
        <path fill="#ffffff" transform="translate(2814,1038) scale(1,-1)" d="M327 -12Q247 -12 181.5 25.0Q116 62 77.5 126.0Q39 190 39 272Q39 354 77.5 418.0Q116 482 181.0 519.0Q246 556 327 556Q406 556 471.0 519.0Q536 482 575.0 418.0Q614 354 614 272Q614 190 575.0 125.5Q536 61 471.0 24.5Q406 -12 327 -12ZM327 108Q370 108 404.0 129.0Q438 150 457.5 187.0Q477 224 477 272Q477 319 457.5 356.0Q438 393 404.0 414.5Q370 436 327 436Q282 436 248.0 414.5Q214 393 194.5 356.0Q175 319 175 272Q175 224 194.5 187.0Q214 150 248.0 129.0Q282 108 327 108Z"/>
        <path fill="#ffffff" transform="translate(3466,1038) scale(1,-1)" d="M268 -12Q181 -12 116.5 29.5Q52 71 28 142L126 189Q147 143 184.5 117.0Q222 91 268 91Q303 91 324.5 106.5Q346 122 346 149Q346 173 327.5 186.0Q309 199 283 206L194 231Q125 250 89.5 291.5Q54 333 54 389Q54 439 80.0 476.5Q106 514 151.0 535.0Q196 556 255 556Q332 556 391.0 518.5Q450 481 475 415L375 368Q361 405 328.0 427.0Q295 449 254 449Q221 449 202.0 434.0Q183 419 183 395Q183 372 200.5 359.0Q218 346 247 338L334 312Q401 292 437.5 251.5Q474 211 474 154Q474 104 448.0 67.0Q422 30 375.5 9.0Q329 -12 268 -12Z"/>
      
  </g>
  <g transform="translate(66,38) scale(0.004037)">

        <path fill="#ffffff" fill-opacity="0.65" transform="translate(0,1984) scale(1,-1)" d="M630 -23Q465 -23 345.0 48.0Q225 119 160.5 248.0Q96 377 96 551Q96 723 159.5 854.0Q223 985 339.0 1058.5Q455 1132 611 1132Q738 1132 852.5 1075.5Q967 1019 1038.5 895.5Q1110 772 1110 570V492H317Q323 330 409.0 244.5Q495 159 632 159Q724 159 790.5 199.0Q857 239 886 317L1093 268Q1053 137 931.0 57.0Q809 -23 630 -23ZM318 656H892Q880 788 809.5 869.0Q739 950 612 950Q480 950 403.5 863.5Q327 777 318 656Z"/>
        <path fill="#ffffff" fill-opacity="0.65" transform="translate(1203,1984) scale(1,-1)" d="M165 0V1490H501L826 635Q841 595 860.0 531.5Q879 468 899.0 395.0Q919 322 936 254Q954 320 974.0 393.0Q994 466 1013.0 530.0Q1032 594 1047 635L1367 1490H1705V0H1478V802Q1478 884 1480.5 1013.5Q1483 1143 1486 1268Q1460 1177 1432.0 1088.0Q1404 999 1379.0 923.5Q1354 848 1337 802L1032 0H837L528 802Q502 869 461.5 997.0Q421 1125 378 1263Q380 1185 382.0 1100.0Q384 1015 385.5 937.0Q387 859 387 802V0Z"/>
        <path fill="#ffffff" fill-opacity="0.65" transform="translate(3072,1984) scale(1,-1)" d="M618 -23Q461 -23 343.5 49.0Q226 121 161.0 250.5Q96 380 96 553Q96 727 161.0 857.5Q226 988 343.5 1060.0Q461 1132 618 1132Q776 1132 893.5 1060.0Q1011 988 1076.0 857.5Q1141 727 1141 553Q1141 380 1076.0 250.5Q1011 121 893.5 49.0Q776 -23 618 -23ZM618 163Q720 163 786.5 216.5Q853 270 885.5 358.5Q918 447 918 553Q918 660 885.5 749.5Q853 839 786.5 892.5Q720 946 618 946Q517 946 451.0 892.5Q385 839 352.5 749.5Q320 660 320 553Q320 447 352.5 358.5Q385 270 451.0 216.5Q517 163 618 163Z"/>
        <path fill="#ffffff" fill-opacity="0.65" transform="translate(4309,1984) scale(1,-1)" d="M703 -22Q601 -22 537.0 12.5Q473 47 436.5 93.0Q400 139 380 175H362V0H148V1490H368V936H380Q399 970 434.5 1016.5Q470 1063 534.0 1097.5Q598 1132 703 1132Q837 1132 942.5 1064.0Q1048 996 1109.0 867.0Q1170 738 1170 556Q1170 376 1110.0 246.0Q1050 116 944.5 47.0Q839 -22 703 -22ZM654 165Q750 165 814.5 217.0Q879 269 912.0 358.0Q945 447 945 558Q945 668 912.5 755.5Q880 843 815.5 894.0Q751 945 654 945Q512 945 438.0 838.5Q364 732 364 558Q364 383 439.0 274.0Q514 165 654 165Z"/>
        <path fill="#ffffff" fill-opacity="0.65" transform="translate(5575,1984) scale(1,-1)" d="M148 0V1118H368V0ZM259 1289Q202 1289 161.5 1327.0Q121 1365 121 1419Q121 1474 161.5 1512.0Q202 1550 259 1550Q316 1550 357.0 1512.0Q398 1474 398 1419Q398 1365 357.0 1327.0Q316 1289 259 1289Z"/>
        <path fill="#ffffff" fill-opacity="0.65" transform="translate(6091,1984) scale(1,-1)" d="M368 1490V0H148V1490Z"/>
        <path fill="#ffffff" fill-opacity="0.65" transform="translate(6607,1984) scale(1,-1)" d="M148 0V1118H368V0ZM259 1289Q202 1289 161.5 1327.0Q121 1365 121 1419Q121 1474 161.5 1512.0Q202 1550 259 1550Q316 1550 357.0 1512.0Q398 1474 398 1419Q398 1365 357.0 1327.0Q316 1289 259 1289Z"/>
        <path fill="#ffffff" fill-opacity="0.65" transform="translate(7123,1984) scale(1,-1)" d="M626 1118V939H403V302Q403 235 431.5 203.5Q460 172 525 172Q543 172 570.5 176.0Q598 180 618 184L657 8Q622 -4 581.5 -9.5Q541 -15 503 -15Q351 -15 267.0 63.5Q183 142 183 284V939H20V1118H183V1384H403V1118Z"/>
        <path fill="#ffffff" fill-opacity="0.65" transform="translate(7820,1984) scale(1,-1)" d="M133 -402 187 -223 212 -229Q297 -252 356.5 -223.5Q416 -195 447 -87L471 -5L46 1118H284L505 483Q530 409 549.0 337.0Q568 265 586 193Q605 265 625.0 337.5Q645 410 671 483L896 1118H1132L646 -155Q595 -289 508.5 -357.5Q422 -426 287 -426Q235 -426 194.5 -418.5Q154 -411 133 -402Z"/>
        <path fill="#ffffff" fill-opacity="0.65" transform="translate(9544,1984) scale(1,-1)" d="M165 0V1490H1103V1294H393V850H1053V655H393V196H1109V0Z"/>
        <path fill="#ffffff" fill-opacity="0.65" transform="translate(10779,1984) scale(1,-1)" d="M368 662V0H148V1118H358L359 903Q411 1021 498.5 1076.5Q586 1132 704 1132Q875 1132 979.5 1024.5Q1084 917 1084 710V0H864V683Q864 804 801.0 872.0Q738 940 628 940Q516 940 442.0 867.5Q368 795 368 662Z"/>
        <path fill="#ffffff" fill-opacity="0.65" transform="translate(12011,1984) scale(1,-1)" d="M616 -442Q422 -442 305.0 -371.0Q188 -300 141 -199L325 -112Q345 -144 378.5 -179.5Q412 -215 468.5 -240.0Q525 -265 615 -265Q742 -265 822.0 -204.5Q902 -144 902 -15V203H883Q863 166 827.5 123.0Q792 80 728.5 48.5Q665 17 563 17Q431 17 325.5 79.0Q220 141 158.0 262.5Q96 384 96 563Q96 741 157.5 868.5Q219 996 325.0 1064.0Q431 1132 566 1132Q669 1132 733.5 1097.5Q798 1063 834.5 1017.0Q871 971 890 936H906V1118H1121V-16Q1121 -163 1054.0 -257.0Q987 -351 873.0 -396.5Q759 -442 616 -442ZM614 200Q754 200 828.5 297.0Q903 394 903 566Q903 734 829.5 839.5Q756 945 614 945Q517 945 451.5 894.5Q386 844 353.5 758.5Q321 673 321 566Q321 402 395.5 301.0Q470 200 614 200Z"/>
        <path fill="#ffffff" fill-opacity="0.65" transform="translate(13280,1984) scale(1,-1)" d="M148 0V1118H368V0ZM259 1289Q202 1289 161.5 1327.0Q121 1365 121 1419Q121 1474 161.5 1512.0Q202 1550 259 1550Q316 1550 357.0 1512.0Q398 1474 398 1419Q398 1365 357.0 1327.0Q316 1289 259 1289Z"/>
        <path fill="#ffffff" fill-opacity="0.65" transform="translate(13796,1984) scale(1,-1)" d="M368 662V0H148V1118H358L359 903Q411 1021 498.5 1076.5Q586 1132 704 1132Q875 1132 979.5 1024.5Q1084 917 1084 710V0H864V683Q864 804 801.0 872.0Q738 940 628 940Q516 940 442.0 867.5Q368 795 368 662Z"/>
        <path fill="#ffffff" fill-opacity="0.65" transform="translate(15028,1984) scale(1,-1)" d="M630 -23Q465 -23 345.0 48.0Q225 119 160.5 248.0Q96 377 96 551Q96 723 159.5 854.0Q223 985 339.0 1058.5Q455 1132 611 1132Q738 1132 852.5 1075.5Q967 1019 1038.5 895.5Q1110 772 1110 570V492H317Q323 330 409.0 244.5Q495 159 632 159Q724 159 790.5 199.0Q857 239 886 317L1093 268Q1053 137 931.0 57.0Q809 -23 630 -23ZM318 656H892Q880 788 809.5 869.0Q739 950 612 950Q480 950 403.5 863.5Q327 777 318 656Z"/>
        <path fill="#ffffff" fill-opacity="0.65" transform="translate(16231,1984) scale(1,-1)" d="M630 -23Q465 -23 345.0 48.0Q225 119 160.5 248.0Q96 377 96 551Q96 723 159.5 854.0Q223 985 339.0 1058.5Q455 1132 611 1132Q738 1132 852.5 1075.5Q967 1019 1038.5 895.5Q1110 772 1110 570V492H317Q323 330 409.0 244.5Q495 159 632 159Q724 159 790.5 199.0Q857 239 886 317L1093 268Q1053 137 931.0 57.0Q809 -23 630 -23ZM318 656H892Q880 788 809.5 869.0Q739 950 612 950Q480 950 403.5 863.5Q327 777 318 656Z"/>
        <path fill="#ffffff" fill-opacity="0.65" transform="translate(17434,1984) scale(1,-1)" d="M148 0V1118H361V938H373Q403 1029 480.5 1081.5Q558 1134 656 1134Q677 1134 704.5 1132.0Q732 1130 749 1128V918Q737 921 703.0 925.5Q669 930 634 930Q519 930 443.5 859.5Q368 789 368 679V0Z"/>
        <path fill="#ffffff" fill-opacity="0.65" transform="translate(18226,1984) scale(1,-1)" d="M148 0V1118H368V0ZM259 1289Q202 1289 161.5 1327.0Q121 1365 121 1419Q121 1474 161.5 1512.0Q202 1550 259 1550Q316 1550 357.0 1512.0Q398 1474 398 1419Q398 1365 357.0 1327.0Q316 1289 259 1289Z"/>
        <path fill="#ffffff" fill-opacity="0.65" transform="translate(18742,1984) scale(1,-1)" d="M368 662V0H148V1118H358L359 903Q411 1021 498.5 1076.5Q586 1132 704 1132Q875 1132 979.5 1024.5Q1084 917 1084 710V0H864V683Q864 804 801.0 872.0Q738 940 628 940Q516 940 442.0 867.5Q368 795 368 662Z"/>
        <path fill="#ffffff" fill-opacity="0.65" transform="translate(19974,1984) scale(1,-1)" d="M616 -442Q422 -442 305.0 -371.0Q188 -300 141 -199L325 -112Q345 -144 378.5 -179.5Q412 -215 468.5 -240.0Q525 -265 615 -265Q742 -265 822.0 -204.5Q902 -144 902 -15V203H883Q863 166 827.5 123.0Q792 80 728.5 48.5Q665 17 563 17Q431 17 325.5 79.0Q220 141 158.0 262.5Q96 384 96 563Q96 741 157.5 868.5Q219 996 325.0 1064.0Q431 1132 566 1132Q669 1132 733.5 1097.5Q798 1063 834.5 1017.0Q871 971 890 936H906V1118H1121V-16Q1121 -163 1054.0 -257.0Q987 -351 873.0 -396.5Q759 -442 616 -442ZM614 200Q754 200 828.5 297.0Q903 394 903 566Q903 734 829.5 839.5Q756 945 614 945Q517 945 451.5 894.5Q386 844 353.5 758.5Q321 673 321 566Q321 402 395.5 301.0Q470 200 614 200Z"/>
        <path fill="#ffffff" fill-opacity="0.65" transform="translate(21789,1984) scale(1,-1)" d="M165 0V1490H699Q871 1490 986.0 1426.5Q1101 1363 1158.0 1253.5Q1215 1144 1215 1006Q1215 868 1157.5 758.5Q1100 649 985.0 585.5Q870 522 697 522H393V0ZM393 715H675Q839 715 911.5 797.5Q984 880 984 1006Q984 1132 911.5 1213.5Q839 1295 673 1295H393Z"/>
        <path fill="#ffffff" fill-opacity="0.65" transform="translate(23103,1984) scale(1,-1)" d="M461 -25Q354 -25 268.5 14.5Q183 54 133.0 130.0Q83 206 83 316Q83 411 120.0 472.5Q157 534 219.0 569.5Q281 605 357.5 623.0Q434 641 513 650Q661 667 728.0 679.5Q795 692 795 751V757Q795 850 740.5 901.5Q686 953 581 953Q471 953 408.0 905.0Q345 857 322 800L115 854Q153 954 224.0 1015.0Q295 1076 386.5 1104.0Q478 1132 578 1132Q645 1132 721.0 1116.0Q797 1100 864.0 1058.5Q931 1017 973.0 940.0Q1015 863 1015 742V0H802V153H791Q758 87 677.5 31.0Q597 -25 461 -25ZM510 152Q599 152 663.0 187.5Q727 223 761.5 280.0Q796 337 796 403V546Q780 530 727.5 518.5Q675 507 617.0 499.0Q559 491 525 487Q432 474 365.5 436.5Q299 399 299 313Q299 233 358.5 192.5Q418 152 510 152Z"/>
        <path fill="#ffffff" fill-opacity="0.65" transform="translate(24266,1984) scale(1,-1)" d="M148 0V1118H361V938H373Q403 1029 480.5 1081.5Q558 1134 656 1134Q677 1134 704.5 1132.0Q732 1130 749 1128V918Q737 921 703.0 925.5Q669 930 634 930Q519 930 443.5 859.5Q368 789 368 679V0Z"/>
        <path fill="#ffffff" fill-opacity="0.65" transform="translate(25058,1984) scale(1,-1)" d="M626 1118V939H403V302Q403 235 431.5 203.5Q460 172 525 172Q543 172 570.5 176.0Q598 180 618 184L657 8Q622 -4 581.5 -9.5Q541 -15 503 -15Q351 -15 267.0 63.5Q183 142 183 284V939H20V1118H183V1384H403V1118Z"/>
        <path fill="#ffffff" fill-opacity="0.65" transform="translate(25755,1984) scale(1,-1)" d="M368 662V0H148V1118H358L359 903Q411 1021 498.5 1076.5Q586 1132 704 1132Q875 1132 979.5 1024.5Q1084 917 1084 710V0H864V683Q864 804 801.0 872.0Q738 940 628 940Q516 940 442.0 867.5Q368 795 368 662Z"/>
        <path fill="#ffffff" fill-opacity="0.65" transform="translate(26987,1984) scale(1,-1)" d="M630 -23Q465 -23 345.0 48.0Q225 119 160.5 248.0Q96 377 96 551Q96 723 159.5 854.0Q223 985 339.0 1058.5Q455 1132 611 1132Q738 1132 852.5 1075.5Q967 1019 1038.5 895.5Q1110 772 1110 570V492H317Q323 330 409.0 244.5Q495 159 632 159Q724 159 790.5 199.0Q857 239 886 317L1093 268Q1053 137 931.0 57.0Q809 -23 630 -23ZM318 656H892Q880 788 809.5 869.0Q739 950 612 950Q480 950 403.5 863.5Q327 777 318 656Z"/>
        <path fill="#ffffff" fill-opacity="0.65" transform="translate(28190,1984) scale(1,-1)" d="M148 0V1118H361V938H373Q403 1029 480.5 1081.5Q558 1134 656 1134Q677 1134 704.5 1132.0Q732 1130 749 1128V918Q737 921 703.0 925.5Q669 930 634 930Q519 930 443.5 859.5Q368 789 368 679V0Z"/>
      
  </g>
</svg>
